<?xml version="1.0" encoding="UTF-8" standalone="no"?>
<svg
   height="24"
   viewBox="0 -960 960 960"
   width="24"
   fill="#ffffff"
   version="1.1"
   id="svg1"
   xmlns="http://www.w3.org/2000/svg"
   xmlns:svg="http://www.w3.org/2000/svg">
  <defs
     id="defs1" />
  <path
     id="path2"
     style="opacity:0.649835;fill:#000000;stroke:none;stroke-width:49;stroke-linecap:round;stroke-linejoin:round;stroke-dasharray:98;stroke-dashoffset:0;stroke-opacity:1;paint-order:normal"
     d="m 480.76953,-931.32031 c -119.70088,0.0198 -234.47603,47.57896 -319.10937,132.22851 -84.633349,84.64955 -132.171062,199.43401 -132.167973,319.13282 -0.0031,119.70102 47.534623,234.48717 132.167973,319.13671 84.63334,84.649552 199.40832,132.208695 319.11523,132.22852 119.71591,0.0031 234.51594,-47.545241 319.16797,-132.19727 84.65203,-84.65202 132.20035,-199.45037 132.19726,-319.16406 0.003,-119.71591 -47.54523,-234.51594 -132.19726,-319.16797 -84.65203,-84.65202 -199.45188,-132.20035 -319.17383,-132.19726 z" />
  <path
     id="path1"
     style="opacity:1;fill:#ffffff;stroke:none;stroke-width:49;stroke-linecap:round;stroke-linejoin:round;stroke-dasharray:98;stroke-dashoffset:0;stroke-opacity:1;paint-order:normal"
     d="m 480.80469,-579.05469 c 26.25526,0.006 51.49623,10.46499 70.05078,29.01953 18.56034,18.56034 29.02214,43.81621 29.02148,70.07032 v 0.01 0.01 c 6.8e-4,26.2498 -10.45941,51.50433 -29.02148,70.0664 -18.55439,18.55439 -43.80042,29.01339 -70.04492,29.01954 -26.25115,-0.0106 -51.48486,-10.46959 -70.03907,-29.02735 -18.55827,-18.56182 -29.0163,-43.81443 -29.01562,-70.0625 v -0.01 -0.01 c -6.8e-4,-26.24418 10.45566,-51.49507 29.01562,-70.05859 18.55404,-18.55759 43.79289,-29.01671 70.03321,-29.02735 z" />
  <path
     id="path3"
     style="opacity:1;fill:none;stroke:#ffffff;stroke-width:49;stroke-linecap:round;stroke-linejoin:round;stroke-dasharray:98;stroke-dashoffset:0;stroke-opacity:1;paint-order:normal"
     d="m 480.7793,-792.25781 c 82.81433,-0.002 162.27366,32.90842 220.83203,91.46679 58.55837,58.55838 91.46893,138.01666 91.46679,220.83594 0.002,82.81434 -32.90842,162.27367 -91.46679,220.83203 -58.55514,58.55514 -138.00897,91.46531 -220.81836,91.4668 -82.80412,-0.0137 -162.24559,-32.93164 -220.79102,-91.48828 -58.54543,-58.55664 -91.4494,-138.00571 -91.44726,-220.81445 -0.002,-82.8038 32.90183,-162.25391 91.44726,-220.81055 58.5422,-58.55341 137.97816,-91.47094 220.77735,-91.48828 z" />
</svg>
