<?xml version="1.0" encoding="UTF-8" standalone="no"?>
<!-- Created with Inkscape (http://www.inkscape.org/) -->

<svg
   width="180mm"
   height="180mm"
   viewBox="0 0 180 180"
   version="1.1"
   id="svg1"
   xml:space="preserve"
   inkscape:export-filename="icon.svg"
   inkscape:export-xdpi="96"
   inkscape:export-ydpi="96"
   sodipodi:docname="lbpass icon inks.svg"
   xmlns:inkscape="http://www.inkscape.org/namespaces/inkscape"
   xmlns:sodipodi="http://sodipodi.sourceforge.net/DTD/sodipodi-0.dtd"
   xmlns:xlink="http://www.w3.org/1999/xlink"
   xmlns="http://www.w3.org/2000/svg"
   xmlns:svg="http://www.w3.org/2000/svg"><sodipodi:namedview
     id="namedview1"
     pagecolor="#e6e6e6"
     bordercolor="#000000"
     borderopacity="1"
     inkscape:showpageshadow="2"
     inkscape:pageopacity="0.0"
     inkscape:pagecheckerboard="0"
     inkscape:deskcolor="#d1d1d1"
     inkscape:document-units="mm"
     inkscape:zoom="0.70110129"
     inkscape:cx="396.51902"
     inkscape:cy="447.15365"
     inkscape:window-width="1920"
     inkscape:window-height="1001"
     inkscape:window-x="1911"
     inkscape:window-y="-9"
     inkscape:window-maximized="1"
     inkscape:current-layer="layer1" /><defs
     id="defs1"><linearGradient
       id="linearGradient5716"><stop
         style="stop-color:#000000;stop-opacity:1;"
         offset="0"
         id="stop5718" /><stop
         style="stop-color:#484848;stop-opacity:1;"
         offset="1"
         id="stop5720" /></linearGradient><filter
       inkscape:collect="always"
       x="-0.18084392"
       width="1.4236743"
       y="-0.15324046"
       height="1.2645558"
       id="filter5601"
       style="color-interpolation-filters:sRGB"><feGaussianBlur
         inkscape:collect="always"
         stdDeviation="0.610872"
         id="feGaussianBlur5603" /></filter><linearGradient
       inkscape:collect="always"
       xlink:href="#linearGradient5716"
       id="linearGradient47"
       gradientUnits="userSpaceOnUse"
       x1="29.089951"
       y1="11.772627"
       x2="33.971455"
       y2="9.7093649" /><filter
       style="color-interpolation-filters:sRGB"
       inkscape:label="Drop Shadow"
       id="filter15"
       x="-0.10158562"
       y="-0.075457924"
       width="1.2033086"
       height="1.1522629"><feFlood
         result="flood"
         in="SourceGraphic"
         flood-opacity="0.662745"
         flood-color="rgb(0,0,0)"
         id="feFlood14" /><feGaussianBlur
         result="blur"
         in="SourceGraphic"
         stdDeviation="1.900000"
         id="feGaussianBlur14" /><feOffset
         result="offset"
         in="blur"
         dx="0.000000"
         dy="0.000000"
         id="feOffset14" /><feComposite
         result="comp1"
         operator="in"
         in="flood"
         in2="offset"
         id="feComposite14" /><feComposite
         result="fbSourceGraphic"
         operator="over"
         in="SourceGraphic"
         in2="comp1"
         id="feComposite15" /><feColorMatrix
         result="fbSourceGraphicAlpha"
         in="fbSourceGraphic"
         values="0 0 0 -1 0 0 0 0 -1 0 0 0 0 -1 0 0 0 0 1 0"
         id="feColorMatrix22" /><feFlood
         id="feFlood22"
         result="flood"
         in="fbSourceGraphic"
         flood-opacity="0.662745"
         flood-color="rgb(0,0,0)" /><feGaussianBlur
         id="feGaussianBlur22"
         result="blur"
         in="fbSourceGraphic"
         stdDeviation="1.900000" /><feOffset
         id="feOffset22"
         result="offset"
         in="blur"
         dx="0.000000"
         dy="0.000000" /><feComposite
         id="feComposite23"
         result="comp1"
         operator="in"
         in="flood"
         in2="offset" /><feComposite
         id="feComposite24"
         result="comp2"
         operator="over"
         in="fbSourceGraphic"
         in2="comp1" /></filter><filter
       style="color-interpolation-filters:sRGB"
       inkscape:label="Drop Shadow"
       id="filter22"
       x="-0.1088325"
       y="-0.10161894"
       width="1.2121421"
       height="1.1832702"><feFlood
         result="flood"
         in="SourceGraphic"
         flood-opacity="0.662745"
         flood-color="rgb(0,0,0)"
         id="feFlood21" /><feGaussianBlur
         result="blur"
         in="SourceGraphic"
         stdDeviation="1.900000"
         id="feGaussianBlur21" /><feOffset
         result="offset"
         in="blur"
         dx="0.000000"
         dy="0.000000"
         id="feOffset21" /><feComposite
         result="comp1"
         operator="in"
         in="flood"
         in2="offset"
         id="feComposite21" /><feComposite
         result="fbSourceGraphic"
         operator="over"
         in="SourceGraphic"
         in2="comp1"
         id="feComposite22" /><feColorMatrix
         result="fbSourceGraphicAlpha"
         in="fbSourceGraphic"
         values="0 0 0 -1 0 0 0 0 -1 0 0 0 0 -1 0 0 0 0 1 0"
         id="feColorMatrix24" /><feFlood
         id="feFlood24"
         result="flood"
         in="fbSourceGraphic"
         flood-opacity="0.662745"
         flood-color="rgb(0,0,0)" /><feGaussianBlur
         id="feGaussianBlur24"
         result="blur"
         in="fbSourceGraphic"
         stdDeviation="1.900000" /><feOffset
         id="feOffset24"
         result="offset"
         in="blur"
         dx="0.000000"
         dy="0.000000" /><feComposite
         id="feComposite25"
         result="comp1"
         operator="in"
         in="flood"
         in2="offset" /><feComposite
         id="feComposite26"
         result="fbSourceGraphic"
         operator="over"
         in="fbSourceGraphic"
         in2="comp1" /><feColorMatrix
         result="fbSourceGraphicAlpha"
         in="fbSourceGraphic"
         values="0 0 0 -1 0 0 0 0 -1 0 0 0 0 -1 0 0 0 0 1 0"
         id="feColorMatrix26" /><feFlood
         id="feFlood26"
         result="flood"
         in="fbSourceGraphic"
         flood-opacity="0.662745"
         flood-color="rgb(0,0,0)" /><feGaussianBlur
         id="feGaussianBlur26"
         result="blur"
         in="fbSourceGraphic"
         stdDeviation="1.900000" /><feOffset
         id="feOffset26"
         result="offset"
         in="blur"
         dx="0.000000"
         dy="0.000000" /><feComposite
         id="feComposite27"
         result="comp1"
         operator="in"
         in="flood"
         in2="offset" /><feComposite
         id="feComposite28"
         result="comp2"
         operator="over"
         in="fbSourceGraphic"
         in2="comp1" /></filter><filter
       style="color-interpolation-filters:sRGB"
       inkscape:label="Drop Shadow"
       id="filter36"
       x="-0.026785154"
       y="-0.026968939"
       width="1.0535703"
       height="1.0539379"><feFlood
         result="flood"
         in="SourceGraphic"
         flood-opacity="1.000000"
         flood-color="rgb(0,0,0)"
         id="feFlood35" /><feGaussianBlur
         result="blur"
         in="SourceGraphic"
         stdDeviation="0.600000"
         id="feGaussianBlur35" /><feOffset
         result="offset"
         in="blur"
         dx="0.000000"
         dy="0.000000"
         id="feOffset35" /><feComposite
         result="comp1"
         operator="in"
         in="flood"
         in2="offset"
         id="feComposite35" /><feComposite
         result="fbSourceGraphic"
         operator="over"
         in="SourceGraphic"
         in2="comp1"
         id="feComposite36" /><feColorMatrix
         result="fbSourceGraphicAlpha"
         in="fbSourceGraphic"
         values="0 0 0 -1 0 0 0 0 -1 0 0 0 0 -1 0 0 0 0 1 0"
         id="feColorMatrix54" /><feFlood
         id="feFlood54"
         result="flood"
         in="fbSourceGraphic"
         flood-opacity="0.250980"
         flood-color="rgb(0,0,0)" /><feGaussianBlur
         id="feGaussianBlur54"
         result="blur"
         in="fbSourceGraphic"
         stdDeviation="0.600000" /><feOffset
         id="feOffset54"
         result="offset"
         in="blur"
         dx="0.000000"
         dy="0.000000" /><feComposite
         id="feComposite54"
         result="comp1"
         operator="in"
         in="flood"
         in2="offset" /><feComposite
         id="feComposite55"
         result="fbSourceGraphic"
         operator="over"
         in="fbSourceGraphic"
         in2="comp1" /><feColorMatrix
         result="fbSourceGraphicAlpha"
         in="fbSourceGraphic"
         values="0 0 0 -1 0 0 0 0 -1 0 0 0 0 -1 0 0 0 0 1 0"
         id="feColorMatrix55" /><feFlood
         id="feFlood55"
         result="flood"
         in="fbSourceGraphic"
         flood-opacity="0.250980"
         flood-color="rgb(0,0,0)" /><feGaussianBlur
         id="feGaussianBlur55"
         result="blur"
         in="fbSourceGraphic"
         stdDeviation="0.600000" /><feOffset
         id="feOffset55"
         result="offset"
         in="blur"
         dx="0.000000"
         dy="0.000000" /><feComposite
         id="feComposite56"
         result="comp1"
         operator="in"
         in="flood"
         in2="offset" /><feComposite
         id="feComposite57"
         result="comp2"
         operator="over"
         in="fbSourceGraphic"
         in2="comp1" /></filter><filter
       style="color-interpolation-filters:sRGB"
       inkscape:label="Drop Shadow"
       id="filter38"
       x="-0.008853775"
       y="-0.010402418"
       width="1.0177076"
       height="1.0208048"><feFlood
         result="flood"
         in="SourceGraphic"
         flood-opacity="1.000000"
         flood-color="rgb(0,0,0)"
         id="feFlood36" /><feGaussianBlur
         result="blur"
         in="SourceGraphic"
         stdDeviation="0.600000"
         id="feGaussianBlur36" /><feOffset
         result="offset"
         in="blur"
         dx="0.000000"
         dy="0.000000"
         id="feOffset36" /><feComposite
         result="comp1"
         operator="in"
         in="flood"
         in2="offset"
         id="feComposite37" /><feComposite
         result="comp2"
         operator="over"
         in="SourceGraphic"
         in2="comp1"
         id="feComposite38" /></filter><filter
       style="color-interpolation-filters:sRGB"
       inkscape:label="Drop Shadow"
       id="filter40"
       x="-0.011203213"
       y="-0.0132902"
       width="1.0224064"
       height="1.0265804"><feFlood
         result="flood"
         in="SourceGraphic"
         flood-opacity="1.000000"
         flood-color="rgb(0,0,0)"
         id="feFlood38" /><feGaussianBlur
         result="blur"
         in="SourceGraphic"
         stdDeviation="0.600000"
         id="feGaussianBlur38" /><feOffset
         result="offset"
         in="blur"
         dx="0.000000"
         dy="0.000000"
         id="feOffset38" /><feComposite
         result="comp1"
         operator="in"
         in="flood"
         in2="offset"
         id="feComposite39" /><feComposite
         result="comp2"
         operator="over"
         in="SourceGraphic"
         in2="comp1"
         id="feComposite40" /></filter><filter
       style="color-interpolation-filters:sRGB"
       inkscape:label="Drop Shadow"
       id="filter44"
       x="-0.024656273"
       y="-0.066784822"
       width="1.0493125"
       height="1.1335696"><feFlood
         result="flood"
         in="SourceGraphic"
         flood-opacity="1.000000"
         flood-color="rgb(0,0,0)"
         id="feFlood40" /><feGaussianBlur
         result="blur"
         in="SourceGraphic"
         stdDeviation="0.600000"
         id="feGaussianBlur40" /><feOffset
         result="offset"
         in="blur"
         dx="0.000000"
         dy="0.000000"
         id="feOffset40" /><feComposite
         result="comp1"
         operator="in"
         in="flood"
         in2="offset"
         id="feComposite41" /><feComposite
         result="comp2"
         operator="over"
         in="SourceGraphic"
         in2="comp1"
         id="feComposite44" /></filter></defs><g
     inkscape:label="Layer 1"
     inkscape:groupmode="layer"
     id="layer1"><g
       id="g19"
       inkscape:label="Earth"
       transform="matrix(0.91993844,0,0,0.91993844,-8.1566047,-18.665422)"
       style="filter:url(#filter22)"><path
         style="display:inline;opacity:1;fill:#5493aa;fill-opacity:1;stroke-width:0.264583"
         d="m 119.63171,200.23473 c 33.22658,-5.48094 56.76158,-34.14962 63.00402,-54.49294 4.99117,-16.26562 5.24853,-59.708431 -10.67874,-77.961968 C 151.68966,44.552335 139.73115,35.617335 106.36805,35.191785 80.370797,34.860188 35.334692,52.782122 28.065003,92.796167 21.06203,131.34214 29.132401,152.22271 47.499246,176.1208 c 16.123875,20.97964 43.396395,28.85414 72.132464,24.11393 z"
         id="path3"
         sodipodi:nodetypes="sssssss"
         inkscape:label="ocean" /><path
         id="path4"
         style="display:inline;fill:#5b7618;fill-opacity:1;stroke-width:0.264583;filter:url(#filter36)"
         inkscape:label="bottom layer"
         d="M 109.34681,35.001998 C 92.081623,35.096344 74.155438,37.078039 59.154529,48.116443 44.153622,59.154846 35.573664,70.626821 30.977954,81.70354 c -2.464481,5.939971 -5.221679,23.86906 -5.127336,25.94467 0.09435,2.0756 2.736348,8.96308 3.208073,11.51041 0.471728,2.54733 1.131799,7.17005 2.263945,9.34 1.132144,2.16992 2.830612,3.7739 2.736267,9.90637 -0.09435,6.13243 -0.896169,14.76533 11.085698,26.13395 11.38854,10.80566 10.2364,16.27453 10.024125,16.36888 -0.212278,0.0943 -3.021654,-0.96609 -2.243306,1.15669 0.778349,2.12277 7.983182,6.86494 9.484207,8.03241 1.501026,1.16747 5.856787,4.02723 7.691373,4.661 1.834586,0.63377 4.629789,0.77961 1.127398,-1.12167 -3.502392,-1.9013 -1.649035,-1.82691 -0.114653,-1.49335 1.534379,0.33356 2.103363,-0.24452 2.970622,-0.91168 0.867259,-0.66712 1.434077,-0.76721 2.401404,-0.66714 0.967327,0.10007 1.834837,0.50005 3.135726,-2.03502 1.300887,-2.53507 -0.166847,-4.00235 2.868558,-4.66948 3.035407,-0.66712 9.372716,-0.96746 11.240658,-2.60191 1.867942,-1.63446 2.468803,-3.50259 2.869075,-5.63738 0.400275,-2.1348 0.933985,-5.06978 4.503082,-6.37067 3.56911,-1.30089 5.13685,-5.10394 -0.3669,-8.40621 -5.503756,-3.30223 -9.706947,-4.16927 -12.075232,-3.80235 0,0 -3.002176,0.93417 -7.471895,-2.33474 -4.469718,-3.26891 -8.472351,-9.73997 -8.472351,-9.73997 0,0 -0.933678,-1.73469 -3.869015,-1.86811 -2.935339,-0.13342 -3.736357,-0.53389 -7.005257,-3.93619 -3.268899,-3.40234 -8.339118,-7.80536 -13.075688,-9.67331 -4.736566,-1.86794 -3.80251,-3.40228 -5.670455,-3.5357 -1.867942,-0.13343 -5.203394,1.80114 -6.470922,0.80046 -1.267534,-1.00069 -4.40305,-7.60504 -4.803325,-10.6071 -0.400272,-3.00206 -0.06666,-6.87142 -0.06666,-6.87142 0,0 -0.06692,-4.86983 -1.801441,-3.00188 -1.734517,1.86795 -1.800854,1.46743 -1.200443,-3.13573 0.60041,-4.603135 2.401347,-7.271877 3.869014,-8.005709 1.46767,-0.733835 3.135677,0.20016 3.202389,4.136182 0.06671,3.936027 0.199978,6.871497 1.600936,6.070947 1.400955,-0.80055 1.467976,-2.00112 1.668115,-3.80235 0.200136,-1.801235 0.06623,-4.069363 1.333769,-5.670457 1.26753,-1.601091 6.204483,-7.53884 8.005712,-9.940478 1.801233,-2.401643 3.001825,-4.402832 4.469495,-4.402832 1.467669,0 3.135768,-2.20136 4.470011,-3.669027 1.334246,-1.46767 3.002165,-2.468561 5.403805,-1.801441 2.401644,0.667126 4.803146,1.934375 5.737117,1.067119 0.933974,-0.867259 0.60031,-1.601107 0.133326,-2.068091 -0.466987,-0.466987 -1.333977,-1.400942 0.333829,-2.801896 1.667806,-1.400958 2.668223,-1.000214 3.13521,0.06718 0.466983,1.067395 1.534773,1.934298 4.336686,1.867586 2.801913,-0.06671 3.602364,0.267117 3.602364,-3.135209 0,-3.402321 -0.267239,-4.869998 -0.867647,-6.938078 -0.600411,-2.068078 -1.067017,-1.334447 -1.200444,-3.202388 -0.133424,-1.867942 -0.200527,-4.002948 -0.867647,-5.270479 -0.667126,-1.267534 0.800579,-3.135101 2.735233,-4.669483 1.934656,-1.534382 4.13637,-1.734827 5.27048,-1.668115 1.134104,0.06671 2.868756,-0.33358 2.601908,2.801896 -0.266851,3.135475 0.467118,6.938316 2.601908,8.005713 2.134792,1.067395 5.069916,1.934555 6.537586,0.133325 1.467669,-1.801229 4.469649,-9.606609 9.139489,-11.741402 4.66987,-2.134789 5.33694,-5.136828 3.5357,-6.270935 -1.8012,-1.134109 -2.86833,-3.402386 0.33383,-2.001428 3.2022,1.400955 3.33528,2.001606 4.60282,1.067635 1.26753,-0.93397 1.53454,-1.801322 6.07095,-1.267623 4.53645,0.533696 9.40642,-0.400453 11.80807,0.933793 2.40162,1.334245 5.07056,5.270589 5.67097,7.205245 0.60041,1.934654 2.06761,6.737541 3.40186,7.471379 1.33425,0.733832 4.4697,0.93396 2.80189,-2.068091 -1.66781,-3.002049 -1.33401,-5.737065 1.06764,-2.334741 2.40165,3.402323 4.60291,5.0037 2.4014,5.870959 -2.20151,0.867259 -0.46681,2.601721 0.46716,4.93665 0.93398,2.334926 0.3334,4.20294 -4.67,0.60048 -5.00344,-3.602462 -4.2693,-4.136172 -5.93711,-5.53713 -1.66781,-1.400958 -3.40244,-2.335238 -4.00285,-1.668115 -0.60041,0.667123 -0.9342,2.06816 -0.4005,2.668571 0.5337,0.600411 0.46699,1.934882 0,2.468583 -0.46699,0.533696 -0.53354,1.400543 -0.19998,3.335197 0.33356,1.934654 0.40043,2.001748 2.6019,2.268595 2.20152,0.266849 2.46845,0.133167 2.66858,-1.734778 0.20014,-1.867942 1.13393,-0.933753 3.00188,0.400493 1.86795,1.334242 4.5366,3.669227 1.8681,6.871415 -2.6685,3.202187 -5.13712,5.003075 -3.80287,7.404716 1.33425,2.40164 1.86798,1.935048 -0.7338,4.336686 -2.60179,2.401643 -0.73394,5.003036 0.13332,6.070431 0.86726,1.067398 4.93719,1.667993 5.60431,-2.334742 0.66713,-4.002731 1.26758,-9.072629 6.20427,-5.870442 4.93672,3.202188 7.0711,3.468555 3.3352,-2.13527 -3.73587,-5.603829 3.40245,-0.333414 4.00286,-0.199988 0.60041,0.133425 2.40187,-1.601169 -1.00046,-4.069519 -3.40231,-2.468355 -3.6025,-4.069141 0.0667,-5.269963 3.66916,-1.200819 5.53689,1.200576 6.53758,3.802352 1.00069,2.601774 1.60098,3.802651 -0.53382,3.402376 -2.13477,-0.400272 -4.26955,0.667144 -0.0667,4.136182 4.20288,3.469036 4.87027,6.671306 5.87096,6.13761 1.00069,-0.533699 1.3341,-5.937395 3.00188,-3.469039 1.66781,2.468349 2.13505,2.601839 3.13573,2.001428 1.00069,-0.600408 1.66772,0.266601 2.20142,0.333313 0.5337,0.06671 1.53409,-1.467426 2.46806,1.067635 0.93398,2.535068 -1.134,2.33508 -3.60236,3.269051 -2.46836,0.933971 -5.00349,1.534359 -7.53856,-0.667142 -2.53507,-2.201505 -2.40142,-4.136538 -9.33948,-2.268596 -6.93806,1.867942 -13.40911,3.23e-4 -16.07757,7.205245 -2.6685,7.204919 -2.86893,11.607809 -8.6062,11.274249 -5.73724,-0.33357 -3.73593,3.60275 -3.40237,7.2719 0.33356,3.66919 -0.40007,10.0732 -0.26665,15.0766 0.13342,5.00343 -0.93384,6.20442 2.60191,8.80618 3.53573,2.60178 8.00543,6.07061 11.87472,5.13664 3.86933,-0.93398 3.00202,-1.20075 4.20285,-0.80047 1.20082,0.40027 2.06795,2.6688 5.73711,1.66812 3.66918,-1.00069 4.60318,-1.33417 6.20428,-2.86856 1.6011,-1.53438 3.53597,-2.86877 6.67142,-3.26905 3.13549,-0.40027 4.53654,-1.33418 3.33572,2.66857 -1.20083,4.00275 -1.33466,6.40419 -0.13384,7.87187 1.20082,1.46767 1.26771,4.33648 -0.9338,9.47333 -2.20148,5.13683 -2.86851,6.13748 -2.93522,9.07283 -0.0667,2.93532 -1.53454,6.27084 -1.8681,7.8052 -0.33356,1.53438 0.33381,2.53533 5.20382,-3.80235 4.86998,-6.33765 11.07407,-19.34657 12.00805,-22.88232 0.93397,-3.53576 4.33611,-18.81298 4.40283,-21.34805 0.0667,-2.53507 0.80084,-29.553983 -4.53616,-40.361362 -5.33696,-10.807379 -14.47697,-27.81911 -29.2871,-37.35896 -14.8101,-9.539845 -26.62617,-13.125074 -43.89138,-13.030729 z m 23.5443,4.558378 c 1.33425,0.133424 4.06942,0.800488 5.6038,1.467611 1.53436,0.667122 7.47189,3.135726 7.47189,3.135726 0,0 -3.10226,-1.367847 -6.73809,-2.101681 -3.63583,-0.733833 -6.3376,-2.501656 -6.3376,-2.501656 z m -17.76635,4.290694 c -1.17164,0.02085 -1.91385,0.395819 -2.24741,0.946196 0,0 -1.36773,1.968196 -1.56787,3.569291 -0.20012,1.601096 0.53381,2.768325 4.00286,3.435449 3.46904,0.667121 4.80348,0.734179 6.67143,-1.500684 1.86795,-2.23486 2.06779,-3.53596 -2.03502,-5.270479 -2.0514,-0.86726 -3.65237,-1.20062 -4.82399,-1.179773 z m -52.121887,6.917924 c 0.390086,0.0093 0.844915,0.205427 1.574581,0.599447 1.66781,0.900617 -1.367218,4.00308 -3.635437,6.471439 -2.268221,2.468357 -2.968931,0.733637 -3.502629,0.266651 -0.533698,-0.466987 -1.167337,-0.900541 -0.867131,-1.834514 0.300207,-0.933973 2.968812,-3.235461 2.968812,-3.235461 0,0 0.533624,-0.366907 1.834513,-1.400948 0.731751,-0.581648 1.125751,-0.878634 1.627291,-0.866614 z M 133.85873,67.34596 c -0.35952,0.02086 -0.40028,-0.03327 -1.00069,1.000773 -0.60041,1.034043 0.26666,2.035023 0.93379,3.069063 0.66712,1.03404 0.60027,1.6341 1.23404,2.901632 0.63377,1.267533 -0.72657,1.486902 -0.16685,2.085036 0.28925,0.309108 0.43399,0.18332 2.56879,-1.551219 2.13479,-1.73452 -1.00065,-2.968866 -2.13476,-3.936194 -1.13412,-0.967328 -0.84697,-3.603164 -1.4343,-3.569091 z m -1.86472,2.731416 c -0.15624,0.0012 -0.30765,0.13958 -0.47026,0.4377 -0.40026,0.733836 -0.46715,0.834057 -0.46715,0.834057 0,0 -0.56702,1.501023 0.30024,2.434994 0.86726,0.933972 1.83431,1.300471 2.10116,-0.133842 0.26686,-1.434314 -0.19986,-1.901047 -0.70021,-2.768307 -0.29708,-0.514935 -0.53542,-0.806342 -0.76378,-0.804602 z M 38.016801,108.1164 c -0.28874,0.01 -0.615896,0.12434 -0.991154,0.39119 -1.501027,1.0674 -0.967383,4.13618 -0.967383,4.13618 0,0 0.266504,1.63476 0.466638,2.70216 0.200139,1.0674 0.767554,0.567 2.635498,2.50166 1.867946,1.93466 2.534636,1.96806 3.7021,1.93476 1.167467,-0.0334 1.935098,-0.0667 1.83503,-1.03404 -0.100068,-0.96733 -2.135257,-3.7692 -2.502173,-4.56975 -0.366917,-0.80055 0.267162,-2.36845 -0.766878,-2.90215 -1.034039,-0.53369 -1.033881,-0.934 -1.600936,-1.70119 -0.425292,-0.5754 -0.944524,-1.48853 -1.810742,-1.45882 z"
         sodipodi:nodetypes="sssssssscssssssssssssscscsssssscssssssssssssssssssssssssssssssssssssssssssssssssssssssssssssssssssscssssssssssssssssssssscscscscssssscsssscscsssssssssccsssscscsscsssscs" /><path
         id="path25"
         style="display:inline;fill:#807e23;fill-opacity:1;stroke-width:0.264583;filter:url(#filter38)"
         d="m 158.87041,56.828573 c -0.67364,0.04668 -1.0361,0.491903 -0.7953,1.411283 0.36692,1.400959 -1.30106,3.502301 -0.46716,4.636409 0.83391,1.134108 1.93475,3.269165 4.36976,2.768824 2.435,-0.500343 3.43551,0.133217 5.43688,1.667598 2.00137,1.534385 3.0688,2.334874 4.80332,2.501656 1.73453,0.16678 3.63626,3.502386 4.27003,4.869987 0.63375,1.367603 1.4341,2.668637 0.63355,2.235006 -0.80055,-0.433631 -2.4014,2.40191 -1.36736,3.802869 1.03404,1.400957 1.94575,3.41067 3.47886,2.490804 1.53312,-0.919867 2.38217,4.882396 2.5001,5.542814 0.11793,0.660419 0.58976,2.217029 -1.43867,2.099096 -2.02843,-0.11793 -2.50595,0.407562 -2.97294,0.974618 -0.46698,0.567053 -0.76689,1.234415 -2.83497,1.067635 -2.06809,-0.166783 -4.10299,-0.366877 -6.00429,-2.134753 -1.90131,-1.767877 -1.7264,-2.879584 -5.40587,-1.912545 -3.67948,0.967043 -3.77372,1.155721 -5.33042,2.570902 -1.55671,1.415182 -3.16085,2.689016 -5.04776,2.264462 -1.88691,-0.424553 -2.78323,-0.707727 -3.96255,1.037662 -1.1793,1.745393 -2.4054,1.085239 -3.4432,4.057117 -1.0378,2.971873 -2.78346,8.632423 -4.71754,10.660853 -1.93409,2.02841 -5.84926,3.25516 -6.50968,8.8687 -0.66042,5.61357 -1.65132,13.06664 2.40554,15.80266 4.05686,2.736 4.38717,3.11339 9.90637,0 5.51922,-3.1134 5.33251,-2.66955 7.19491,-3.62252 0,0 5.53724,-3.66936 13.00903,-2.53525 7.47177,1.13411 8.60598,0.7339 10.27379,-1.46761 1.66781,-2.20149 2.06794,-1.73467 4.33617,-3.26905 2.26822,-1.53439 3.66912,-4.53627 4.93665,-3.00188 1.26754,1.53438 0.97532,5.51982 0.72398,6.20685 -0.35378,0.96705 0.42426,2.45358 1.08469,0.14211 0.69515,-2.43297 0.32596,-14.08757 -0.20774,-20.22512 -0.5337,-6.13752 -1.06714,-11.808213 -3.80235,-18.546152 -2.7352,-6.737944 -8.47232,-18.612997 -10.6071,-21.148064 -2.1348,-2.535067 -5.7376,-7.137936 -6.47144,-8.005196 -0.73383,-0.867257 -2.77308,-1.043213 -1.50585,0.05271 1.15356,0.997621 2.2633,2.914755 0.39997,1.358057 -1.86333,-1.556701 -4.19765,-2.444931 -5.59862,-2.97863 -0.35024,-0.133424 -0.67762,-0.214762 -0.96584,-0.239778 -0.10808,-0.0094 -0.21072,-0.0108 -0.30695,-0.0041 z M 41.098267,65.31436 c -0.829083,-0.08118 -1.160964,1.357769 -2.571936,2.865458 -1.616808,1.727631 -4.869946,7.438778 -7.004741,12.008569 -2.134792,4.569792 -5.136621,16.678294 -5.50354,18.779732 -0.366918,2.101441 -0.700829,6.037481 0.466638,5.537131 1.167464,-0.50034 0.333561,-4.837019 3.469039,-9.206674 3.135479,-4.369654 1.935002,-4.035811 3.002401,-6.971151 1.067396,-2.93534 3.73583,-5.537566 4.93665,-6.338114 1.200821,-0.800548 2.935221,-6.070431 2.935221,-6.070431 0.533697,-1.567737 0.600449,-0.967726 1.334285,-2.935738 0.733835,-1.968014 0.533882,-2.268185 0.100253,-4.202844 -0.433631,-1.934655 0.833451,-2.435015 -0.434082,-3.102136 -0.158442,-0.08339 -0.611748,-0.352205 -0.730188,-0.363802 z m 145.540983,64.19866 c -0.47172,0.0472 -0.51935,1.72188 -0.84956,3.37293 -0.33021,1.65103 -0.51817,3.32516 -1.22576,3.56102 -0.7076,0.23587 -2.14687,4.36388 -3.23185,7.24142 -1.08495,2.87752 -2.45296,5.56614 -4.15116,6.03787 -1.69823,0.47173 -4.55651,5.58339 -5.86321,9.74979 0,0 -1.4014,3.8362 -2.20193,8.00572 -0.80054,4.16951 -0.70014,4.46941 -1.50069,5.26996 -0.80055,0.80055 -1.03436,3.16905 1.13378,0.40049 2.16815,-2.76857 8.63948,-12.87588 10.44071,-16.81189 1.80124,-3.93604 7.52033,-20.24685 7.89771,-23.21874 0.37739,-2.97188 0.0237,-3.65574 -0.44804,-3.60857 z M 44.55697,129.6355 c -0.40942,-0.009 -0.768672,0.1665 -1.063501,0.60875 -0.943455,1.41519 0.188628,4.15103 0.849044,5.18883 0.66042,1.0378 0.896373,1.321 1.792655,2.26446 0,0 4.716898,4.67005 6.745325,2.5001 2.028427,-2.16992 1.557141,-4.05698 -0.141076,-5.42499 -1.69822,-1.36801 -3.113597,-1.98129 -4.906161,-3.30212 -1.232386,-0.90808 -2.375559,-1.81603 -3.276286,-1.83503 z m -1.949752,30.57074 c -0.179845,0.011 -0.349135,0.09 -0.505395,0.25218 -1.250078,1.29726 0.70776,2.80645 1.934249,3.91501 1.226493,1.10856 4.693636,4.71747 6.061645,7.47706 1.368007,2.75961 2.759281,5.21239 4.575432,6.7691 1.816149,1.5567 2.217366,3.18442 2.736267,4.71754 0.518899,1.53311 2.169738,3.84472 1.556494,3.51451 -0.613246,-0.33021 -1.603957,0.0941 -0.802018,0.89607 0.801934,0.80193 6.240192,5.417 10.944034,6.8399 4.492363,1.35892 3.025196,0.24671 2.414323,0.0723 -0.54621,-0.15593 -3.742454,-1.52747 -3.675744,-2.32802 0.06672,-0.80055 1.013017,-0.61993 2.880961,-0.88677 1.867944,-0.26686 -0.545753,-1.04775 2.989998,-1.38131 3.535756,-0.33357 4.402912,-2.26854 3.602364,-3.73621 -0.800548,-1.46765 -7.338479,-3.00207 -9.539986,-4.13618 -2.201506,-1.13411 -2.735294,-4.06941 -4.736662,-7.67188 -2.001368,-3.60247 -3.135209,-2.46824 -3.135209,0.53382 0,3.00204 -1.401306,1.40093 -3.002401,-0.66715 -1.601096,-2.06807 -3.802351,-4.2695 -3.802351,-4.2695 -0.74467,-0.86116 -4.137639,-3.95041 -5.906617,-5.43636 -1.547854,-1.3002 -3.330462,-4.55089 -4.589384,-4.47415 z"
         inkscape:label="second layer" /><path
         style="display:inline;fill:#faf9ee;fill-opacity:1;stroke-width:0.264583;filter:url(#filter44)"
         d="m 103.0919,34.032031 c -8.418531,0.120395 -18.050069,1.900933 -22.369695,2.659786 -4.936712,0.867261 -4.469843,2.668673 -4.002857,2.535246 0.466987,-0.13342 2.268198,-0.400225 2.801896,-0.06666 0.533699,0.333563 2.334865,0.467019 8.405689,-0.733805 6.070824,-1.200821 6.137655,0.599935 0.533817,1.333769 -5.603837,0.733837 -5.203583,4.403337 -0.667142,5.804297 4.53644,1.400959 3.335334,0.666798 4.536157,6.67091 1.200821,6.004115 4.53688,2.868912 6.338114,-1.067118 1.801231,-3.936028 4.803321,-6.004285 4.803321,-6.004285 3.36898,-1.901302 3.28529,-3.602453 1.43402,-4.869987 -1.85126,-1.267534 2.26807,-2.551735 3.66903,-2.618445 1.40096,-0.06671 3.43598,1.351023 4.10311,1.084172 0.66712,-0.266848 0.80058,-1.334486 4.80332,-1.067635 4.00274,0.266848 2.78402,-0.408023 12.00806,0.60048 8.65977,0.94681 5.12553,-0.564375 1.20096,-1.800924 -3.68883,-1.162271 -15.01042,-1.934934 -24.08329,-2.40192 -1.13411,-0.05837 -2.31186,-0.07508 -3.51451,-0.05788 z"
         id="path11"
         inkscape:label="ice layer" /><path
         id="path16"
         style="display:inline;fill:#d3cd60;fill-opacity:1;stroke-width:0.264583;filter:url(#filter40)"
         d="m 182.1894,83.010437 c -0.34072,-0.02255 -0.56388,0.264089 -0.38551,1.07487 0.25945,1.179319 0.15,0.860689 0.48783,2.140438 0,0 1.00069,4.002964 2.06809,5.937622 1.06739,1.934657 1.86804,4.102843 1.93476,4.803324 0.0667,0.700478 0.14428,1.246894 0.48628,0.975651 0.342,-0.271243 0.49523,-0.577905 0.0589,-2.181779 -0.43635,-1.603876 -2.11091,-7.830433 -2.62982,-9.269202 -0.51889,-1.43877 -0.94338,-2.90097 -1.50946,-3.278352 -0.1769,-0.117932 -0.35621,-0.192322 -0.51108,-0.202572 z m -17.93948,8.281148 c -1.17163,0.0042 -2.05525,0.387834 -2.4722,0.904855 -0.83391,1.034043 -1.10711,4.295545 -2.45153,5.970178 -1.34443,1.674633 -1.12348,2.655332 -2.72736,2.914782 -1.60387,0.25945 -3.57016,0.9535 -5.64577,2.51021 -2.0756,1.5567 -2.3345,1.33692 -3.7853,2.81481 0,0 -5.47047,5.40385 -7.53856,8.80619 -2.06807,3.40232 -2.86891,8.73915 -2.40192,10.6071 0.46698,1.86795 -0.3999,2.60165 4.33669,2.26808 4.73657,-0.33356 7.07152,-0.26677 9.67331,-0.80047 2.60178,-0.5337 5.20322,-4.06939 9.47281,-4.93665 4.26958,-0.86727 10.7409,-1.93491 12.8757,-1.73478 2.13479,0.20014 4.93667,1.33417 5.60379,0.80047 0.66713,-0.5337 1.74167,-2.06932 0.44442,-3.08353 -1.29725,-1.01422 -5.25962,-1.01384 -4.26899,-2.85357 0.99063,-1.83974 2.52374,0 4.22196,-0.0708 1.69822,-0.0708 3.58496,-0.51922 1.29708,-2.21744 -2.28788,-1.69821 -2.69724,-3.83002 -1.36788,-5.071 0.56628,-0.52863 0.91337,-0.68865 1.60404,0.70745 0.96543,1.95149 1.79218,5.02423 2.85357,4.52892 1.06139,-0.49532 1.69836,-3.2552 1.86346,-5.37797 0.16511,-2.12278 0.77855,-4.22193 1.34462,-5.1418 0.56608,-0.91987 -0.0711,-2.64146 -0.96739,-4.1274 -0.89629,-1.485943 -2.85389,-6.627902 -5.40122,-5.755204 -2.54732,0.872695 -3.06608,2.8305 -4.5992,2.523877 -1.53311,-0.306623 -4.62993,-0.812926 -7.76542,-2.814298 -1.56774,-1.000685 -3.02707,-1.376179 -4.19871,-1.37201 z m 16.41327,61.337855 c -0.15009,0.002 -0.19344,0.18228 -0.5104,0.76457 -1.01421,1.86332 -1.17904,2.81865 -1.81587,3.40831 -0.63683,0.58965 -0.91223,0.96781 -1.48208,1.63969 0,0 -1.53462,1.73457 -2.46859,3.40237 -0.93397,1.66781 -2.60633,3.3313 -2.18177,3.75585 0.42455,0.42456 1.48572,0.0472 0.89607,1.06143 -0.58966,1.01422 -1.06296,1.38552 -0.61482,1.50345 0.44814,0.11794 0.85076,0.40716 1.74705,-1.29106 0.89627,-1.69822 3.49078,-5.82622 3.89175,-6.58099 0.40097,-0.75476 3.13698,-5.51905 3.23133,-6.17947 0.0648,-0.45404 -0.36245,-1.48789 -0.69267,-1.48415 z m -120.458079,28.4055 c -0.108221,0.002 -0.207141,0.0217 -0.29559,0.0615 -0.943456,0.42455 -1.556779,2.64187 -0.471805,4.57595 1.084973,1.93409 3.726837,3.11336 4.575948,3.82095 0.84911,0.70759 2.358678,2.07526 3.962551,1.83939 1.603876,-0.23586 3.207758,-0.94311 1.320847,-2.1696 -1.886908,-1.22649 -1.368033,-0.99079 -2.641699,-1.93425 0,0 -1.179562,-0.66029 -2.406055,-2.68872 -1.111507,-1.83827 -2.998067,-3.52175 -4.044197,-3.50522 z"
         inkscape:label="top layer"
         sodipodi:nodetypes="sscsssssssssssscsssssssssssssssssssssssscsssssssssssssscsss" /></g><g
       id="g26"
       inkscape:label="Tree"
       transform="matrix(0.79331753,0,0,0.79331753,3.8218023,-3.613556)"
       style="filter:url(#filter15)"><path
         id="path1"
         style="display:inline;opacity:1;fill:none;fill-opacity:1;stroke:#ff9e00;stroke-width:6;stroke-linecap:round;stroke-linejoin:round;stroke-dasharray:18, 12, 24, 21, 12;stroke-dashoffset:1200;stroke-opacity:1"
         inkscape:label="outline"
         d="m 110.09961,37.761719 c -2.84632,0.03165 -5.41942,0.184881 -7.28711,0.267578 -15.935031,0.705566 -28.069974,4.416067 -40.810547,14.291015 -12.979851,10.06041 -19.981258,23.66445 -21.136719,39.666016 -1.323831,18.333282 6.547088,39.112012 18.365235,47.990232 17.78098,13.35774 24.053887,5.85204 26.367187,-2.55078 l 1.378906,-1.61719 c 11.207269,-13.15029 12.064436,-12.01366 12.064454,-12.01367 4.322344,-2.35765 6.966104,-3.29688 7.480464,-2.90039 2.13148,1.643 6.07599,5.81632 5.15235,19.95508 -1.02103,15.62952 -1.1829,20.13408 -1.33985,25.07812 -0.73215,21.829 1.29883,23.0586 1.29883,23.0586 0.25825,0.86153 0.76415,2.1644 1.57032,3.18554 5.16801,6.54618 16.72475,2.12366 23.35351,-0.90429 6.62035,-3.02412 16.16934,-8.1099 11.41406,-18.21485 -2.72085,-5.78178 -14.23541,-22.78237 -15.91211,-29.6289 -1.94652,-7.94829 -6.22243,-21.71833 -4.8789,-26.8125 1.74202,-6.60515 3.19542,-9.56353 6.75976,-13.06641 4.24196,-4.16881 4.31037,-4.2229 4.95899,-4.718748 12.19624,1.408378 19.71164,-1.604955 20.2539,-17.337891 0.47711,-13.84279 -6.85149,-27.829532 -16.82422,-35.072265 -10.63109,-7.720885 -23.51362,-8.751192 -32.22851,-8.654297 z"
         sodipodi:nodetypes="ssssssssssscscscscsscscssscsssssscs" /><path
         style="display:inline;fill:#6a6f2b;fill-opacity:1;stroke:#444623;stroke-width:1;stroke-linecap:round;stroke-linejoin:round;stroke-dasharray:none;stroke-opacity:1"
         d="M 103.05751,43.522508 C 88.26069,44.177677 76.872269,47.753196 65.371662,56.667073 53.662399,65.742676 47.39773,77.903765 46.352222,92.382631 c -1.221211,16.912119 6.229006,35.720069 16.181427,43.196689 19.315428,14.51047 18.291161,-0.47925 19.07429,-10.19007 0.783131,-9.71082 7.282838,-24.98186 19.186421,-31.325224 11.90358,-6.343352 25.68684,-2.584569 36.88561,-0.939994 11.19877,1.644578 15.55863,0.277636 15.97577,-11.825118 0.41313,-11.986456 -6.10994,-24.294983 -14.56006,-30.431918 -12.39887,-9.00474 -28.41792,-7.681895 -36.03817,-7.344488 z"
         id="path19"
         inkscape:label="top" /><path
         style="display:inline;fill:#9a704e;fill-opacity:1;stroke:#59412d;stroke-width:1;stroke-linecap:round;stroke-linejoin:round;stroke-dasharray:none;stroke-opacity:1"
         d="m 119.10384,92.188171 c -6.65662,-0.07831 -8.94829,0.663009 -8.94829,0.663009 0,0 4.26562,5.284812 5.20537,10.06192 0.93976,4.77708 0.62632,10.33735 0.62632,10.33735 0,0 -3.9159,-6.10839 -6.97012,-8.77104 -3.05421,-2.66265 -9.13071,-7.735444 -9.13071,-7.735444 0,0 -1.096577,0.484296 -2.819467,1.893941 -1.722886,1.409633 -2.818949,2.810163 -2.818949,2.810163 0,0 2.944063,0.99511 5.371765,2.48305 2.427701,1.48794 6.108641,2.58469 -0.782898,4.93407 -6.891549,2.3494 -13.314433,7.26002 -13.314433,7.26002 0,0 -0.878456,0.71484 -1.856217,5.68493 -1.014624,5.15747 -0.875916,10.43037 -0.875916,10.43037 0,0 9.311589,-10.92371 13.618807,-13.27309 4.307218,-2.3494 9.710428,-5.32535 13.469458,-2.42776 3.75903,2.89757 8.30135,9.08449 7.28328,24.66878 -1.01807,15.58429 -1.17455,19.96967 -1.33118,24.90338 0,0 -0.66062,19.6755 1.68879,22.6514 2.34937,2.97588 10.40925,0.40079 16.7526,-2.49679 6.34336,-2.89759 11.22837,-5.54608 8.72235,-10.87137 -2.50603,-5.32528 -14.3986,-22.98814 -16.2781,-30.66281 -1.87952,-7.67468 -6.73504,-22.3973 -4.85552,-29.52378 1.87952,-7.12649 3.68059,-11.12074 8.22275,-15.584577 4.54216,-4.463841 5.57382,-5.255493 5.57382,-5.255493 0,0 -9.89692,-2.101916 -16.55351,-2.180229 z"
         id="path26"
         inkscape:label="trunk" /></g><g
       id="default-pointer-c"
       inkscape:label="adwaita"
       transform="matrix(2.5877298,-1.4940264,1.4940264,2.5877298,31.180352,111.8398)"
       style="display:inline"><path
         style="color:#000000;display:block;overflow:visible;visibility:visible;opacity:0.6;fill:#000000;fill-opacity:1;fill-rule:nonzero;stroke:#000000;stroke-width:1;stroke-linecap:butt;stroke-linejoin:miter;stroke-miterlimit:10;stroke-dasharray:none;stroke-dashoffset:0;stroke-opacity:1;marker:none;filter:url(#filter5601);enable-background:accumulate"
         d="m 19.029832,13.716854 v 16.440234 l 3.712311,-3.623922 2.12132,4.331029 c 0.519598,1.171377 3.220861,0.229524 2.452777,-1.336875 l -2.099224,-4.496756 h 4.684582 z"
         id="path5567"
         sodipodi:nodetypes="cccccccc"
         inkscape:connector-curvature="0"
         transform="translate(8.1053848,-10.868121)"
         inkscape:label="shadow" /><path
         sodipodi:nodetypes="cccccccc"
         id="path5565"
         d="M 26.604893,2.3179921 V 18.758225 l 3.712311,-3.623922 2.12132,4.331029 c 0.519598,1.171377 3.220861,0.229524 2.452777,-1.336875 l -2.099224,-4.496756 4.684582,-4.4e-5 z"
         style="color:#000000;display:block;overflow:visible;visibility:visible;fill:url(#linearGradient47);fill-opacity:1;fill-rule:nonzero;stroke:#ffffff;stroke-width:1;stroke-linecap:butt;stroke-linejoin:miter;stroke-miterlimit:10;stroke-dasharray:none;stroke-dashoffset:0;stroke-opacity:1;marker:none;enable-background:accumulate"
         inkscape:connector-curvature="0"
         inkscape:label="cursor" /></g></g></svg>
