<?xml version="1.0" encoding="UTF-8" standalone="no"?>
<!-- Created with Inkscape (http://www.inkscape.org/) -->

<svg
   width="180mm"
   height="180mm"
   viewBox="0 0 180 180"
   version="1.1"
   id="svg1"
   xml:space="preserve"
   xmlns:xlink="http://www.w3.org/1999/xlink"
   xmlns="http://www.w3.org/2000/svg"
   xmlns:svg="http://www.w3.org/2000/svg"><defs
     id="defs1"><linearGradient
       id="linearGradient5716"><stop
         style="stop-color:#000000;stop-opacity:1;"
         offset="0"
         id="stop5718" /><stop
         style="stop-color:#484848;stop-opacity:1;"
         offset="1"
         id="stop5720" /></linearGradient><filter
       x="-0.18084392"
       width="1.4236743"
       y="-0.15324046"
       height="1.2645558"
       id="filter5601"
       style="color-interpolation-filters:sRGB"><feGaussianBlur
         stdDeviation="0.610872"
         id="feGaussianBlur5603" /></filter><linearGradient
       xlink:href="#linearGradient5716"
       id="linearGradient47"
       gradientUnits="userSpaceOnUse"
       x1="29.089951"
       y1="11.772627"
       x2="33.971455"
       y2="9.7093649" /><filter
       style="color-interpolation-filters:sRGB"
       id="filter15"
       x="-0.10158562"
       y="-0.075457924"
       width="1.2033086"
       height="1.1522629"><feFlood
         result="flood"
         in="SourceGraphic"
         flood-opacity="0.662745"
         flood-color="rgb(0,0,0)"
         id="feFlood14" /><feGaussianBlur
         result="blur"
         in="SourceGraphic"
         stdDeviation="1.900000"
         id="feGaussianBlur14" /><feOffset
         result="offset"
         in="blur"
         dx="0.000000"
         dy="0.000000"
         id="feOffset14" /><feComposite
         result="comp1"
         operator="in"
         in="flood"
         in2="offset"
         id="feComposite14" /><feComposite
         result="fbSourceGraphic"
         operator="over"
         in="SourceGraphic"
         in2="comp1"
         id="feComposite15" /><feColorMatrix
         result="fbSourceGraphicAlpha"
         in="fbSourceGraphic"
         values="0 0 0 -1 0 0 0 0 -1 0 0 0 0 -1 0 0 0 0 1 0"
         id="feColorMatrix22" /><feFlood
         id="feFlood22"
         result="flood"
         in="fbSourceGraphic"
         flood-opacity="0.662745"
         flood-color="rgb(0,0,0)" /><feGaussianBlur
         id="feGaussianBlur22"
         result="blur"
         in="fbSourceGraphic"
         stdDeviation="1.900000" /><feOffset
         id="feOffset22"
         result="offset"
         in="blur"
         dx="0.000000"
         dy="0.000000" /><feComposite
         id="feComposite23"
         result="comp1"
         operator="in"
         in="flood"
         in2="offset" /><feComposite
         id="feComposite24"
         result="comp2"
         operator="over"
         in="fbSourceGraphic"
         in2="comp1" /></filter></defs><g
     id="layer1"
     transform="matrix(1.2384076,0,0,1.2384076,-31.432069,-20.211092)"><g
       id="g26"
       transform="matrix(0.79331753,0,0,0.79331753,3.8218023,-3.613556)"
       style="filter:url(#filter15)"><path
         id="path1"
         style="display:inline;opacity:1;fill:none;fill-opacity:1;stroke:#ff9e00;stroke-width:6;stroke-linecap:round;stroke-linejoin:round;stroke-dasharray:18, 12, 24, 21, 12;stroke-dashoffset:1200;stroke-opacity:1"
         d="m 110.09961,37.761719 c -2.84632,0.03165 -5.41942,0.184881 -7.28711,0.267578 -15.935031,0.705566 -28.069974,4.416067 -40.810547,14.291015 -12.979851,10.06041 -19.981258,23.66445 -21.136719,39.666016 -1.323831,18.333282 6.547088,39.112012 18.365235,47.990232 17.78098,13.35774 24.053887,5.85204 26.367187,-2.55078 l 1.378906,-1.61719 c 11.207269,-13.15029 12.064436,-12.01366 12.064454,-12.01367 4.322344,-2.35765 6.966104,-3.29688 7.480464,-2.90039 2.13148,1.643 6.07599,5.81632 5.15235,19.95508 -1.02103,15.62952 -1.1829,20.13408 -1.33985,25.07812 -0.73215,21.829 1.29883,23.0586 1.29883,23.0586 0.25825,0.86153 0.76415,2.1644 1.57032,3.18554 5.16801,6.54618 16.72475,2.12366 23.35351,-0.90429 6.62035,-3.02412 16.16934,-8.1099 11.41406,-18.21485 -2.72085,-5.78178 -14.23541,-22.78237 -15.91211,-29.6289 -1.94652,-7.94829 -6.22243,-21.71833 -4.8789,-26.8125 1.74202,-6.60515 3.19542,-9.56353 6.75976,-13.06641 4.24196,-4.16881 4.31037,-4.2229 4.95899,-4.718748 12.19624,1.408378 19.71164,-1.604955 20.2539,-17.337891 0.47711,-13.84279 -6.85149,-27.829532 -16.82422,-35.072265 -10.63109,-7.720885 -23.51362,-8.751192 -32.22851,-8.654297 z" /><path
         style="display:inline;fill:#6a6f2b;fill-opacity:1;stroke:#444623;stroke-width:1;stroke-linecap:round;stroke-linejoin:round;stroke-dasharray:none;stroke-opacity:1"
         d="M 103.05751,43.522508 C 88.26069,44.177677 76.872269,47.753196 65.371662,56.667073 53.662399,65.742676 47.39773,77.903765 46.352222,92.382631 c -1.221211,16.912119 6.229006,35.720069 16.181427,43.196689 19.315428,14.51047 18.291161,-0.47925 19.07429,-10.19007 0.783131,-9.71082 7.282838,-24.98186 19.186421,-31.325224 11.90358,-6.343352 25.68684,-2.584569 36.88561,-0.939994 11.19877,1.644578 15.55863,0.277636 15.97577,-11.825118 0.41313,-11.986456 -6.10994,-24.294983 -14.56006,-30.431918 -12.39887,-9.00474 -28.41792,-7.681895 -36.03817,-7.344488 z"
         id="path19" /><path
         style="display:inline;fill:#9a704e;fill-opacity:1;stroke:#59412d;stroke-width:1;stroke-linecap:round;stroke-linejoin:round;stroke-dasharray:none;stroke-opacity:1"
         d="m 119.10384,92.188171 c -6.65662,-0.07831 -8.94829,0.663009 -8.94829,0.663009 0,0 4.26562,5.284812 5.20537,10.06192 0.93976,4.77708 0.62632,10.33735 0.62632,10.33735 0,0 -3.9159,-6.10839 -6.97012,-8.77104 -3.05421,-2.66265 -9.13071,-7.735444 -9.13071,-7.735444 0,0 -1.096577,0.484296 -2.819467,1.893941 -1.722886,1.409633 -2.818949,2.810163 -2.818949,2.810163 0,0 2.944063,0.99511 5.371765,2.48305 2.427701,1.48794 6.108641,2.58469 -0.782898,4.93407 -6.891549,2.3494 -13.314433,7.26002 -13.314433,7.26002 0,0 -0.878456,0.71484 -1.856217,5.68493 -1.014624,5.15747 -0.875916,10.43037 -0.875916,10.43037 0,0 9.311589,-10.92371 13.618807,-13.27309 4.307218,-2.3494 9.710428,-5.32535 13.469458,-2.42776 3.75903,2.89757 8.30135,9.08449 7.28328,24.66878 -1.01807,15.58429 -1.17455,19.96967 -1.33118,24.90338 0,0 -0.66062,19.6755 1.68879,22.6514 2.34937,2.97588 10.40925,0.40079 16.7526,-2.49679 6.34336,-2.89759 11.22837,-5.54608 8.72235,-10.87137 -2.50603,-5.32528 -14.3986,-22.98814 -16.2781,-30.66281 -1.87952,-7.67468 -6.73504,-22.3973 -4.85552,-29.52378 1.87952,-7.12649 3.68059,-11.12074 8.22275,-15.584577 4.54216,-4.463841 5.57382,-5.255493 5.57382,-5.255493 0,0 -9.89692,-2.101916 -16.55351,-2.180229 z"
         id="path26" /></g><g
       id="default-pointer-c"
       transform="matrix(2.5877298,-1.4940264,1.4940264,2.5877298,31.180352,111.8398)"
       style="display:inline"><path
         style="color:#000000;display:block;overflow:visible;visibility:visible;opacity:0.6;fill:#000000;fill-opacity:1;fill-rule:nonzero;stroke:#000000;stroke-width:1;stroke-linecap:butt;stroke-linejoin:miter;stroke-miterlimit:10;stroke-dasharray:none;stroke-dashoffset:0;stroke-opacity:1;marker:none;filter:url(#filter5601);enable-background:accumulate"
         d="m 19.029832,13.716854 v 16.440234 l 3.712311,-3.623922 2.12132,4.331029 c 0.519598,1.171377 3.220861,0.229524 2.452777,-1.336875 l -2.099224,-4.496756 h 4.684582 z"
         id="path5567"
         transform="translate(8.1053848,-10.868121)" /><path
         id="path5565"
         d="M 26.604893,2.3179921 V 18.758225 l 3.712311,-3.623922 2.12132,4.331029 c 0.519598,1.171377 3.220861,0.229524 2.452777,-1.336875 l -2.099224,-4.496756 4.684582,-4.4e-5 z"
         style="color:#000000;display:block;overflow:visible;visibility:visible;fill:url(#linearGradient47);fill-opacity:1;fill-rule:nonzero;stroke:#ffffff;stroke-width:1;stroke-linecap:butt;stroke-linejoin:miter;stroke-miterlimit:10;stroke-dasharray:none;stroke-dashoffset:0;stroke-opacity:1;marker:none;enable-background:accumulate" /></g></g></svg>
