<?xml version="1.0" encoding="UTF-8" standalone="no"?>
<svg
   height="24"
   viewBox="0 -960 960 960"
   width="24"
   fill="#ffffff"
   version="1.1"
   id="svg1"
   xml:space="preserve"
   xmlns="http://www.w3.org/2000/svg"
   xmlns:svg="http://www.w3.org/2000/svg"><defs
     id="defs1" /><path
     id="path2"
     style="display:inline;fill:#ffffff"
     d="m 653.98437,-460 -12.03125,60 c -7.99998,3.33333 -15.50002,6.80209 -22.5,10.46875 -6.99998,3.66666 -14.15106,8.18231 -21.48437,13.51562 L 540,-393.98438 l -40,67.96875 46.01562,40 c -1.33333,8 -2.03125,16.68232 -2.03125,26.01563 0,9.33331 0.69792,18.01564 2.03125,26.01562 l -46.01562,40 40,67.96875 57.96875,-17.96875 c 7.33331,5.33333 14.48439,9.84897 21.48437,13.51563 6.99998,3.66666 14.50002,7.13542 22.5,10.46875 l 12.03125,59.999997 h 80 L 746.01562,-120 c 7.99998,-3.33333 15.50002,-6.80209 22.5,-10.46875 6.99998,-3.66666 14.15105,-8.1823 21.48438,-13.51563 l 57.96875,17.96875 39.99999,-67.96875 -46.01562,-40 c 1.33333,-7.99998 2.03125,-16.68231 2.03125,-26.01562 0,-9.33331 -0.69792,-18.01563 -2.03125,-26.01563 l 46.01562,-40 -39.99999,-67.96875 L 790,-376.01563 c -7.33333,-5.33331 -14.4844,-9.84896 -21.48438,-13.51562 -6.99998,-3.66666 -14.50002,-7.13542 -22.5,-10.46875 l -12.03125,-60 z m 40,120 c 21.99996,0 40.81773,7.84899 56.48438,23.51562 15.66663,15.66665 23.51562,34.48442 23.51562,56.48438 0,21.99996 -7.84899,40.81774 -23.51562,56.48437 C 734.8021,-187.84898 715.98433,-180 693.98437,-180 671.98441,-180 653.16663,-187.84898 637.5,-203.51563 621.83335,-219.18226 613.98437,-238.00004 613.98437,-260 c 0,-21.99996 7.84898,-40.81773 23.51563,-56.48438 C 653.16663,-332.15101 671.98441,-340 693.98437,-340 Z" /><path
     id="path1"
     style="display:inline;fill:#ffffff"
     d="m 160,-800 c -21.99998,0 -40.81772,7.84897 -56.48438,23.51562 C 87.848974,-760.81772 80,-741.99998 80,-720 v 480 c 0,21.99998 7.848974,40.81772 23.51562,56.48438 C 119.18228,-167.84897 138.00002,-160 160,-160 h 300.54688 a 260,260 0 0 1 -19.14063,-80 H 243.98438 l 72.03124,-240 H 561.71875 A 260,260 0 0 1 700,-520 260,260 0 0 1 899.84375,-426.25 L 940,-560 H 256.01562 L 160,-240 v -400 -80 h 207.03125 l 80,80 H 880 c 0,-21.99998 -7.84897,-40.81772 -23.51562,-56.48438 C 840.81772,-712.15103 821.99998,-720 800,-720 H 480 l -80,-80 z" /></svg>
