v 0.000000 -3.329087 0.000000
v 2.408952 -1.488833 1.750185
v -0.920120 -1.488834 2.831885
v -2.977623 -1.488820 0.000000
v -0.920120 -1.488834 -2.831885
v 2.408952 -1.488833 -1.750185
v 0.920120 1.488834 2.831885
v -2.408952 1.488833 1.750185
v -2.408952 1.488833 -1.750185
v 0.920120 1.488834 -2.831885
v 2.977623 1.488820 0.000000
v 0.000000 3.329087 0.000000
v -0.540829 -2.831903 1.664528
v 1.415936 -2.831902 1.028726
v 0.875113 -1.750226 2.693270
v 2.831881 -1.750220 0.000000
v 1.415936 -2.831901 -1.028726
v -1.750200 -2.831893 0.000000
v -2.291042 -1.750221 1.664533
v -0.540829 -2.831903 -1.664528
v -2.291042 -1.750222 -1.664533
v 0.875113 -1.750226 -2.693270
v 3.166154 -0.000000 1.028730
v 3.166154 -0.000000 -1.028730
v 0.000000 -0.000000 3.329087
v 1.956789 -0.000000 2.693287
v -3.166154 -0.000000 1.028730
v -1.956789 -0.000000 2.693287
v -1.956789 -0.000000 -2.693287
v -3.166154 -0.000000 -1.028730
v 1.956789 -0.000000 -2.693287
v 0.000000 -0.000000 -3.329087
v 2.291042 1.750222 1.664533
v -0.875113 1.750226 2.693270
v -2.831881 1.750220 0.000000
v -0.875113 1.750226 -2.693270
v 2.291042 1.750221 -1.664533
v 0.540829 2.831902 1.664528
v 1.750200 2.831893 0.000000
v -1.415936 2.831901 1.028726
v -1.415936 2.831902 -1.028726
v 0.540829 2.831902 -1.664528
v 0.000000 61.899391 0.000000
v 2.408952 63.739639 1.750185
v -0.920120 63.739639 2.831885
v -2.977623 63.739655 0.000000
v -0.920120 63.739639 -2.831885
v 2.408952 63.739639 -1.750185
v 0.920120 66.717308 2.831885
v -2.408952 66.717308 1.750185
v -2.408952 66.717308 -1.750185
v 0.920120 66.717308 -2.831885
v 2.977623 66.717293 0.000000
v 0.000000 68.557564 0.000000
v -0.540829 62.396576 1.664528
v 1.415936 62.396576 1.028726
v 0.875113 63.478249 2.693270
v 2.831881 63.478256 0.000000
v 1.415936 62.396576 -1.028726
v -1.750200 62.396584 0.000000
v -2.291042 63.478256 1.664533
v -0.540829 62.396576 -1.664528
v -2.291042 63.478256 -1.664533
v 0.875113 63.478249 -2.693270
v 3.166154 65.228477 1.028730
v 3.166154 65.228477 -1.028730
v 0.000000 65.228477 3.329087
v 1.956789 65.228477 2.693287
v -3.166154 65.228477 1.028730
v -1.956789 65.228477 2.693287
v -1.956789 65.228477 -2.693287
v -3.166154 65.228477 -1.028730
v 1.956789 65.228477 -2.693287
v 0.000000 65.228477 -3.329087
v 2.291042 66.978699 1.664533
v -0.875113 66.978699 2.693270
v -2.831881 66.978699 0.000000
v -0.875113 66.978699 -2.693270
v 2.291042 66.978699 -1.664533
v 0.540829 68.060379 1.664528
v 1.750200 68.060371 0.000000
v -1.415936 68.060379 1.028726
v -1.415936 68.060379 -1.028726
v 0.540829 68.060379 -1.664528
v 6.504027 6.431833 -6.495791
v -6.484124 6.431833 -6.495791
v 6.504027 6.431833 6.492361
v -6.484124 6.431833 6.492361
v 0.000000 65.140732 -0.000000
v 0.000000 0.000000 0.000000
vn 0.1024 -0.9435 0.3151
vn 0.7002 -0.6617 0.2680
vn -0.2680 -0.9435 0.1947
vn -0.2680 -0.9435 -0.1947
vn 0.1024 -0.9435 -0.3151
vn 0.9050 -0.3304 0.2680
vn 0.0247 -0.3304 0.9435
vn -0.8897 -0.3304 0.3151
vn -0.5746 -0.3304 -0.7488
vn 0.5346 -0.3304 -0.7779
vn 0.8026 -0.1256 0.5831
vn -0.3066 -0.1256 0.9435
vn -0.9921 -0.1256 -0.0000
vn -0.3066 -0.1256 -0.9435
vn 0.8026 -0.1256 -0.5831
vn 0.4089 0.6617 0.6284
vn -0.4713 0.6617 0.5831
vn -0.7002 0.6617 -0.2680
vn 0.0385 0.6617 -0.7488
vn 0.7240 0.6617 -0.1947
vn 0.2680 0.9435 -0.1947
vn 0.4911 0.7947 -0.3568
vn 0.4089 0.6617 -0.6284
vn -0.1024 0.9435 -0.3151
vn -0.1876 0.7947 -0.5773
vn -0.4713 0.6617 -0.5831
vn -0.3313 0.9435 -0.0000
vn -0.6071 0.7947 -0.0000
vn -0.7002 0.6617 0.2680
vn -0.1024 0.9435 0.3151
vn -0.1876 0.7947 0.5773
vn 0.0385 0.6617 0.7488
vn 0.2680 0.9435 0.1947
vn 0.4911 0.7947 0.3568
vn 0.7240 0.6617 0.1947
vn 0.8897 0.3304 -0.3151
vn 0.7947 0.1876 -0.5773
vn 0.5746 0.3304 -0.7488
vn -0.0247 0.3304 -0.9435
vn -0.3035 0.1876 -0.9342
vn -0.5346 0.3304 -0.7779
vn -0.9050 0.3304 -0.2680
vn -0.9822 0.1876 -0.0000
vn -0.9050 0.3304 0.2680
vn -0.5346 0.3304 0.7779
vn -0.3035 0.1876 0.9342
vn -0.0247 0.3304 0.9435
vn 0.5746 0.3304 0.7488
vn 0.7947 0.1876 0.5773
vn 0.8897 0.3304 0.3151
vn 0.3066 0.1256 -0.9435
vn 0.3035 -0.1876 -0.9342
vn 0.0247 -0.3304 -0.9435
vn -0.8026 0.1256 -0.5831
vn -0.7947 -0.1876 -0.5773
vn -0.8897 -0.3304 -0.3151
vn -0.8026 0.1256 0.5831
vn -0.7947 -0.1876 0.5773
vn -0.5746 -0.3304 0.7488
vn 0.3066 0.1256 0.9435
vn 0.3035 -0.1876 0.9342
vn 0.5346 -0.3304 0.7779
vn 0.9921 0.1256 -0.0000
vn 0.9822 -0.1876 -0.0000
vn 0.9050 -0.3304 -0.2680
vn 0.4713 -0.6617 -0.5831
vn 0.1876 -0.7947 -0.5773
vn -0.0385 -0.6617 -0.7488
vn -0.4089 -0.6617 -0.6284
vn -0.4911 -0.7947 -0.3568
vn -0.7240 -0.6617 -0.1947
vn -0.7240 -0.6617 0.1947
vn -0.4911 -0.7947 0.3568
vn -0.4089 -0.6617 0.6284
vn 0.7002 -0.6617 -0.2680
vn 0.6071 -0.7947 -0.0000
vn 0.3313 -0.9435 -0.0000
vn -0.0385 -0.6617 0.7488
vn 0.1876 -0.7947 0.5773
vn 0.4713 -0.6617 0.5831
vn -0.7947 -0.1876 -0.5774
vn -0.7947 -0.1876 0.5774
vn 0.9940 -0.1098 -0.0000
vn -0.0000 -0.1099 -0.9939
vn -0.9939 -0.1101 -0.0000
vn -0.0000 -0.1100 0.9939
vn -0.0000 0.7104 -0.7038
vn 0.7042 0.7100 -0.0000
vn -0.0000 0.7106 0.7036
vn -0.7031 0.7110 -0.0000
vn -0.0000 -1.0000 -0.0000
vt 0.181819 0.000000
vt 0.909091 0.000000
vt 0.727273 0.000000
vt 0.545455 0.000000
vt 0.363637 0.000000
vt 0.272728 0.157461
vt 1.000000 0.157461
vt 0.090910 0.157461
vt 0.818182 0.157461
vt 0.636364 0.157461
vt 0.454546 0.157461
vt 0.181819 0.314921
vt 0.000000 0.314921
vt 0.909091 0.314921
vt 0.727273 0.314921
vt 0.545455 0.314921
vt 0.363637 0.314921
vt 0.454546 0.472382
vt 0.636364 0.472382
vt 0.818182 0.472382
vt 0.090910 0.472382
vt 0.272728 0.472382
vt 0.954545 0.078731
vt 0.136365 0.078731
vt 0.318182 0.078731
vt 0.227273 0.078731
vt 0.181819 0.157461
vt 0.363637 0.157461
vt 0.500000 0.078731
vt 0.409092 0.078731
vt 0.772727 0.078731
vt 0.863636 0.078731
vt 0.909091 0.157461
vt 0.590909 0.078731
vt 0.681818 0.078731
vt 0.727273 0.157461
vt 0.545455 0.157461
vt 0.318182 0.236191
vt 0.409092 0.236191
vt 0.136365 0.236191
vt 0.227273 0.236191
vt 0.863636 0.236191
vt 0.045455 0.236191
vt 0.954545 0.236191
vt 0.681818 0.236191
vt 0.772727 0.236191
vt 0.500000 0.236191
vt 0.590909 0.236191
vt 0.272728 0.314921
vt 0.090910 0.314921
vt 0.818182 0.314921
vt 0.636364 0.314921
vt 0.454546 0.314921
vt 0.136365 0.393651
vt 0.227273 0.393651
vt 0.409092 0.393651
vt 0.318182 0.393651
vt 0.863636 0.393651
vt 0.045455 0.393651
vt 0.681818 0.393651
vt 0.772727 0.393651
vt 0.500000 0.393651
vt 0.590909 0.393651
vt 0.181819 0.000000
vt 0.909091 0.000000
vt 0.727273 0.000000
vt 0.545455 0.000000
vt 0.363637 0.000000
vt 0.272728 0.157461
vt 1.000000 0.157461
vt 0.090910 0.157461
vt 0.818182 0.157461
vt 0.636364 0.157461
vt 0.454546 0.157461
vt 0.181819 0.314921
vt 0.000000 0.314921
vt 0.909091 0.314921
vt 0.727273 0.314921
vt 0.545455 0.314921
vt 0.363637 0.314921
vt 0.454546 0.472382
vt 0.636364 0.472382
vt 0.818182 0.472382
vt 0.090910 0.472382
vt 0.272728 0.472382
vt 0.954545 0.078731
vt 0.136365 0.078731
vt 0.318182 0.078731
vt 0.227273 0.078731
vt 0.181819 0.157461
vt 0.363637 0.157461
vt 0.500000 0.078731
vt 0.409092 0.078731
vt 0.772727 0.078731
vt 0.863636 0.078731
vt 0.909091 0.157461
vt 0.590909 0.078731
vt 0.681818 0.078731
vt 0.727273 0.157461
vt 0.545455 0.157461
vt 0.318182 0.236191
vt 0.409092 0.236191
vt 0.136365 0.236191
vt 0.227273 0.236191
vt 0.863636 0.236191
vt 0.045455 0.236191
vt 0.954545 0.236191
vt 0.681818 0.236191
vt 0.772727 0.236191
vt 0.500000 0.236191
vt 0.590909 0.236191
vt 0.272728 0.314921
vt 0.090910 0.314921
vt 0.818182 0.314921
vt 0.636364 0.314921
vt 0.454546 0.314921
vt 0.136365 0.393651
vt 0.227273 0.393651
vt 0.409092 0.393651
vt 0.318182 0.393651
vt 0.863636 0.393651
vt 0.045455 0.393651
vt 0.681818 0.393651
vt 0.772727 0.393651
vt 0.500000 0.393651
vt 0.590909 0.393651
vt 0.000000 0.000000
vt 0.000000 0.000000
vt 0.000000 0.000000
vt 0.000000 0.000000
vt 0.000000 0.000000
vt 0.000000 0.000000
f 1/1/1 14/26/1 13/24/1
f 2/6/2 14/25/2 16/28/2
f 1/2/3 13/23/3 18/32/3
f 1/3/4 18/31/4 20/35/4
f 1/4/5 20/34/5 17/29/5
f 2/6/6 16/28/6 23/38/6
f 3/8/7 15/27/7 25/40/7
f 4/9/8 19/33/8 27/42/8
f 5/10/9 21/36/9 29/45/9
f 6/11/10 22/37/10 31/47/10
f 2/6/11 23/38/11 26/41/11
f 3/8/12 25/40/12 28/43/12
f 4/9/13 27/42/13 30/46/13
f 5/10/14 29/45/14 32/48/14
f 6/11/15 31/47/15 24/39/15
f 7/12/16 33/49/16 38/55/16
f 8/13/17 34/50/17 40/59/17
f 9/15/18 35/51/18 41/61/18
f 10/16/19 36/52/19 42/63/19
f 11/17/20 37/53/20 39/56/20
f 39/56/21 42/62/21 12/18/21
f 39/56/22 37/53/22 42/62/22
f 37/53/23 10/16/23 42/62/23
f 42/63/24 41/60/24 12/19/24
f 42/63/25 36/52/25 41/60/25
f 36/52/26 9/15/26 41/60/26
f 41/61/27 40/58/27 12/20/27
f 41/61/28 35/51/28 40/58/28
f 35/51/29 8/14/29 40/58/29
f 40/59/30 38/54/30 12/21/30
f 40/59/31 34/50/31 38/54/31
f 34/50/32 7/12/32 38/54/32
f 38/55/33 39/57/33 12/22/33
f 38/55/34 33/49/34 39/57/34
f 33/49/35 11/17/35 39/57/35
f 24/39/36 37/53/36 11/17/36
f 24/39/37 31/47/37 37/53/37
f 31/47/38 10/16/38 37/53/38
f 32/48/39 36/52/39 10/16/39
f 32/48/40 29/45/40 36/52/40
f 29/45/41 9/15/41 36/52/41
f 30/46/42 35/51/42 9/15/42
f 30/46/43 27/42/43 35/51/43
f 27/42/44 8/14/44 35/51/44
f 28/43/45 34/50/45 8/13/45
f 28/43/46 25/40/46 34/50/46
f 25/40/47 7/12/47 34/50/47
f 26/41/48 33/49/48 7/12/48
f 26/41/49 23/38/49 33/49/49
f 23/38/50 11/17/50 33/49/50
f 31/47/51 32/48/51 10/16/51
f 31/47/52 22/37/52 32/48/52
f 22/37/53 5/10/53 32/48/53
f 29/45/54 30/46/54 9/15/54
f 29/45/55 21/36/55 30/46/55
f 21/36/56 4/9/56 30/46/56
f 27/42/57 28/44/57 8/14/57
f 27/42/58 19/33/58 28/44/58
f 19/33/59 3/7/59 28/44/59
f 25/40/60 26/41/60 7/12/60
f 25/40/61 15/27/61 26/41/61
f 15/27/62 2/6/62 26/41/62
f 23/38/63 24/39/63 11/17/63
f 23/38/64 16/28/64 24/39/64
f 16/28/65 6/11/65 24/39/65
f 17/29/66 22/37/66 6/11/66
f 17/29/67 20/34/67 22/37/67
f 20/34/68 5/10/68 22/37/68
f 20/35/69 21/36/69 5/10/69
f 20/35/70 18/31/70 21/36/70
f 18/31/71 4/9/71 21/36/71
f 18/32/72 19/33/72 4/9/72
f 18/32/73 13/23/73 19/33/73
f 13/23/74 3/7/74 19/33/74
f 16/28/75 17/30/75 6/11/75
f 16/28/76 14/25/76 17/30/76
f 14/25/77 1/5/77 17/30/77
f 13/24/78 15/27/78 3/8/78
f 13/24/79 14/26/79 15/27/79
f 14/26/80 2/6/80 15/27/80
f 43/64/1 56/89/1 55/87/1
f 44/69/2 56/88/2 58/91/2
f 43/65/3 55/86/3 60/95/3
f 43/66/4 60/94/4 62/98/4
f 43/67/5 62/97/5 59/92/5
f 44/69/6 58/91/6 65/101/6
f 45/71/7 57/90/7 67/103/7
f 46/72/8 61/96/8 69/105/8
f 47/73/9 63/99/9 71/108/9
f 48/74/10 64/100/10 73/110/10
f 44/69/11 65/101/11 68/104/11
f 45/71/12 67/103/12 70/106/12
f 46/72/13 69/105/13 72/109/13
f 47/73/14 71/108/14 74/111/14
f 48/74/15 73/110/15 66/102/15
f 49/75/16 75/112/16 80/118/16
f 50/76/17 76/113/17 82/122/17
f 51/78/18 77/114/18 83/124/18
f 52/79/19 78/115/19 84/126/19
f 53/80/20 79/116/20 81/119/20
f 81/119/21 84/125/21 54/81/21
f 81/119/22 79/116/22 84/125/22
f 79/116/23 52/79/23 84/125/23
f 84/126/24 83/123/24 54/82/24
f 84/126/25 78/115/25 83/123/25
f 78/115/26 51/78/26 83/123/26
f 83/124/27 82/121/27 54/83/27
f 83/124/28 77/114/28 82/121/28
f 77/114/29 50/77/29 82/121/29
f 82/122/30 80/117/30 54/84/30
f 82/122/31 76/113/31 80/117/31
f 76/113/32 49/75/32 80/117/32
f 80/118/33 81/120/33 54/85/33
f 80/118/34 75/112/34 81/120/34
f 75/112/35 53/80/35 81/120/35
f 66/102/36 79/116/36 53/80/36
f 66/102/37 73/110/37 79/116/37
f 73/110/38 52/79/38 79/116/38
f 74/111/39 78/115/39 52/79/39
f 74/111/40 71/108/40 78/115/40
f 71/108/41 51/78/41 78/115/41
f 72/109/42 77/114/42 51/78/42
f 72/109/43 69/105/43 77/114/43
f 69/105/44 50/77/44 77/114/44
f 70/106/45 76/113/45 50/76/45
f 70/106/46 67/103/46 76/113/46
f 67/103/47 49/75/47 76/113/47
f 68/104/48 75/112/48 49/75/48
f 68/104/49 65/101/49 75/112/49
f 65/101/50 53/80/50 75/112/50
f 73/110/51 74/111/51 52/79/51
f 73/110/52 64/100/52 74/111/52
f 64/100/53 47/73/53 74/111/53
f 71/108/54 72/109/54 51/78/54
f 71/108/81 63/99/81 72/109/81
f 63/99/56 46/72/56 72/109/56
f 69/105/57 70/107/57 50/77/57
f 69/105/82 61/96/82 70/107/82
f 61/96/59 45/70/59 70/107/59
f 67/103/60 68/104/60 49/75/60
f 67/103/61 57/90/61 68/104/61
f 57/90/62 44/69/62 68/104/62
f 65/101/63 66/102/63 53/80/63
f 65/101/64 58/91/64 66/102/64
f 58/91/65 48/74/65 66/102/65
f 59/92/66 64/100/66 48/74/66
f 59/92/67 62/97/67 64/100/67
f 62/97/68 47/73/68 64/100/68
f 62/98/69 63/99/69 47/73/69
f 62/98/70 60/94/70 63/99/70
f 60/94/71 46/72/71 63/99/71
f 60/95/72 61/96/72 46/72/72
f 60/95/73 55/86/73 61/96/73
f 55/86/74 45/70/74 61/96/74
f 58/91/75 59/93/75 48/74/75
f 58/91/76 56/88/76 59/93/76
f 56/88/77 43/68/77 59/93/77
f 55/87/78 57/90/78 45/71/78
f 55/87/79 56/89/79 57/90/79
f 56/89/80 44/69/80 57/90/80
f 88/130/83 86/128/83 89/131/83
f 87/129/84 88/130/84 89/131/84
f 85/127/85 87/129/85 89/131/85
f 86/128/86 85/127/86 89/131/86
f 87/129/87 90/132/87 88/130/87
f 88/130/88 90/132/88 86/128/88
f 86/128/89 90/132/89 85/127/89
f 85/127/90 90/132/90 87/129/90
f 86/128/91 85/127/91 87/129/91 88/130/91