# Blender 3.4.1
# www.blender.org
mtllib position_bi_axial_thick.mtl
o Plane
v 0.000000 7.000000 -3.000000
v 0.000000 3.000000 -3.000000
v 0.000000 7.000000 -7.000000
v 0.000000 3.000000 -7.000000
v 0.000000 3.000000 -3.000000
v 0.000000 3.000000 -7.000000
vn 1.0000 -0.0000 -0.0000
vn -1.0000 -0.0000 -0.0000
vt 0.000000 0.000000
vt 1.000000 0.000000
vt 0.000000 1.000000
vt 1.000000 1.000000
vt 0.000000 0.000000
vt 0.000000 1.000000
s 0
usemtl Material.003
f 2/2/1 3/3/1 1/1/1
f 2/2/1 4/4/1 3/3/1
f 3/3/2 5/5/2 1/1/2
f 3/3/2 6/6/2 5/5/2
