<?xml version="1.0" encoding="UTF-8" standalone="no"?>
<svg
   height="24"
   viewBox="0 -960 960 960"
   width="24"
   fill="#ffffff"
   version="1.1"
   id="svg1"
   xml:space="preserve"
   xmlns="http://www.w3.org/2000/svg"
   xmlns:svg="http://www.w3.org/2000/svg"><defs
     id="defs1" /><path
     d="m 315,-220 v -36.66667 h 36.66667 V -220 Z m 0,-73.33334 V -330 h 36.66667 v 36.66666 z m 0,-73.33332 v -36.66668 h 36.66667 v 36.66668 z M 315,-440 v -36.66667 h 36.66667 V -440 Z m 0,-73.33333 V -550 h 36.66667 v 36.66667 z M 388.33334,-220 v -36.66667 H 425 V -220 Z m 0,-293.33333 V -550 H 425 v 36.66667 z M 461.66667,-220 v -36.66667 h 36.66667 V -220 Z m 73.33334,0 v -36.66667 h 36.66666 V -220 Z m 73.33332,0 v -36.66667 H 645 V -220 Z m 0,-73.33334 V -330 H 645 v 36.66666 z M 645,-366.66666 h -36.66667 v -91.66668 q 0,-22.91665 -16.04165,-38.95833 -16.04168,-16.04166 -38.95834,-16.04166 H 461.66667 V -550 h 91.66667 q 38.04166,0 64.85416,26.8125 Q 645,-496.375 645,-458.33334 Z"
     id="path1-67"
     style="fill:#ffffff;stroke-width:0.458334" /><path
     d="m 240,-80 q -33,0 -56.5,-23.5 Q 160,-127 160,-160 v -640 q 0,-33 23.5,-56.5 Q 207,-880 240,-880 h 320 l 240,240 v 480 q 0,33 -23.5,56.5 Q 753,-80 720,-80 Z M 520,-600 V -800 H 240 v 640 H 720 V -600 Z M 240,-800 v 200 -200 640 z"
     id="path1"
     style="display:inline" /></svg>
