<?xml version="1.0" encoding="UTF-8" standalone="no"?>
<svg
   height="24"
   viewBox="0 -960 960 960"
   width="24"
   fill="#ffffff"
   version="1.1"
   id="svg1"
   xml:space="preserve"
   xmlns="http://www.w3.org/2000/svg"
   xmlns:svg="http://www.w3.org/2000/svg"><defs
     id="defs1" /><path
     d="m 613.04348,-443.42491 q -13.30435,13.30436 -30.55072,20.20291 -17.24638,6.89854 -34.49276,6.89854 -17.24637,0 -34,-6.65216 -16.75362,-6.65218 -30.05797,-20.44929 l -36.95653,-36.95651 q -7.39129,-7.39131 -16.75362,-11.08697 -9.36231,-3.69565 -19.21739,-3.69565 -9.85507,0 -19.21739,3.69565 -9.36232,3.69566 -16.75362,11.08697 L 338.08696,-443.42491 310,-471.51186 l 36.95652,-36.95653 q 13.30435,-13.30434 30.05797,-19.95651 16.75362,-6.65218 34,-6.65218 17.24637,0 33.75363,6.65218 16.50724,6.65217 29.81159,19.95651 l 36.95652,36.95653 q 7.88406,7.88406 17.24638,11.57971 9.36231,3.69565 19.21739,3.69565 9.85507,0 19.46377,-3.69565 9.6087,-3.69565 17.49275,-11.57971 L 621.91305,-508.46839 650,-480.38142 Z m 0,98.55073 q -13.30435,13.30435 -30.30435,19.95653 -17,6.65216 -34.24637,6.65216 -17.24638,0 -34.24638,-6.65216 -17,-6.65218 -30.30435,-19.95653 l -36.95653,-36.95653 q -7.39129,-7.39129 -16.75362,-11.08695 -9.36231,-3.69565 -19.21739,-3.69565 -9.85507,0 -19.21739,3.69565 -9.36232,3.69566 -16.75362,11.08695 l -36.95652,36.95653 -28.08696,-27.5942 36.95652,-37.44928 q 13.30435,-13.30434 30.05797,-19.95652 16.75362,-6.65217 34,-6.65217 17.24637,0 33.75363,6.65217 16.50724,6.65218 29.81159,19.95652 l 36.95652,36.95653 q 7.88406,7.88405 17.24638,11.57971 9.36231,3.69564 19.21739,3.69564 9.85507,0 19.46377,-3.69564 9.6087,-3.69566 17.49275,-11.57971 L 621.91305,-409.91766 650,-381.83071 Z m -0.49276,98.55073 q -13.30434,13.30435 -30.05796,19.95651 -16.75363,6.65218 -34,6.65218 -17.24638,0 -34.24638,-6.65218 -17,-6.65216 -30.30435,-19.95651 l -37.44928,-36.95653 q -7.3913,-7.3913 -16.75362,-11.08695 -9.36232,-3.69565 -19.21739,-3.69565 -9.85508,0 -19.21739,3.69565 -9.36232,3.69565 -16.75362,11.08695 l -36.95653,36.95653 -27.5942,-27.5942 36.95652,-37.44928 q 13.30435,-13.30435 30.05797,-19.95652 16.75362,-6.65218 34,-6.65218 17.24637,0 33.75363,6.65218 16.50724,6.65217 29.81159,19.95652 l 36.95652,36.95652 q 7.88406,7.88405 17.49276,11.57971 9.60869,3.69565 19.46377,3.69565 9.85507,0 19.21738,-3.69565 9.36233,-3.69566 17.24638,-11.57971 l 36.95653,-36.95652 27.5942,28.08695 z"
     id="path1-93"
     style="fill:#ffffff;stroke-width:0.492753" /><path
     d="m 240,-80 q -33,0 -56.5,-23.5 Q 160,-127 160,-160 v -640 q 0,-33 23.5,-56.5 Q 207,-880 240,-880 h 320 l 240,240 v 480 q 0,33 -23.5,56.5 Q 753,-80 720,-80 Z M 520,-600 V -800 H 240 v 640 H 720 V -600 Z M 240,-800 v 200 -200 640 z"
     id="path1"
     style="display:inline" /></svg>
