<?xml version="1.0" encoding="UTF-8" standalone="no"?>
<svg
   height="24"
   viewBox="0 -960 960 960"
   width="24"
   fill="#ffffff"
   version="1.1"
   id="svg1"
   xml:space="preserve"
   xmlns="http://www.w3.org/2000/svg"
   xmlns:svg="http://www.w3.org/2000/svg"><defs
     id="defs1" /><path
     style="font-size:487.465px;font-family:Eigerdals;-inkscape-font-specification:Eigerdals;display:inline;opacity:1;fill:#fffdfd;stroke-width:40.6222"
     d="m 474.15036,-221.92213 q -28.27297,0 -32.17269,-8.2869 -1.94986,-2.92479 2.92479,-15.59888 l 17.06127,-42.89692 h -38.9972 l -18.0362,45.82171 q -9.26184,20.96099 -44.84678,20.96099 -28.27297,0 -32.66016,-8.2869 -1.94986,-3.41226 3.41226,-15.59888 l 17.06127,-42.89692 H 325.961 q -20.961,0 -20.961,-21.93593 v -14.62395 q 0,-24.86071 20.961,-24.86071 h 46.30917 l 21.93593,-54.59608 h -21.44846 q -20.961,0 -20.961,-22.42339 v -14.13649 q 0,-25.34818 20.961,-25.34818 h 45.82171 l 17.06127,-41.92199 q 4.38719,-10.23676 9.7493,-14.13648 10.72423,-7.31198 35.58495,-7.31198 28.76043,0 32.66015,7.79944 1.94986,3.41226 -3.41225,16.57381 l -15.59888,38.9972 h 38.02227 l 17.06127,-41.92199 q 9.26184,-21.44846 45.82171,-21.44846 28.76044,0 32.66016,7.79944 1.46239,2.92479 -3.89972,16.57381 l -15.59888,38.9972 h 24.86071 q 21.44846,0 21.44846,25.34818 v 14.13649 q 0,22.42339 -21.44846,22.42339 h -49.72143 l -21.93592,54.59608 h 24.86071 q 21.93593,0 21.93593,24.86071 v 14.62395 q 0,21.93593 -21.93593,21.93593 h -49.72143 l -18.0362,45.33424 q -7.79944,21.44846 -44.84678,21.44846 z m -26.32311,-128.20329 h 38.50973 l 21.93593,-54.59608 h -38.50974 z"
     id="text1"
     aria-label="#" /><path
     d="m 240,-80 q -33,0 -56.5,-23.5 Q 160,-127 160,-160 v -640 q 0,-33 23.5,-56.5 Q 207,-880 240,-880 h 320 l 240,240 v 480 q 0,33 -23.5,56.5 Q 753,-80 720,-80 Z M 520,-600 V -800 H 240 v 640 H 720 V -600 Z M 240,-800 v 200 -200 640 z"
     id="path1"
     style="display:inline" /></svg>
