<?xml version="1.0" encoding="UTF-8" standalone="no"?>
<svg
   height="24"
   viewBox="0 -960 960 960"
   width="24"
   fill="#ffffff"
   version="1.1"
   id="svg1"
   xml:space="preserve"
   xmlns="http://www.w3.org/2000/svg"
   xmlns:svg="http://www.w3.org/2000/svg"><defs
     id="defs1" /><path
     d="m 359.44445,-215.55555 q -14.20833,0 -24.32639,-10.11806 Q 325,-235.79167 325,-250 v -241.11114 q 0,-14.20833 10.11806,-24.32639 10.11806,-10.11805 24.32639,-10.11805 h 72.33334 q 5.59722,-15.50001 18.72917,-24.97223 13.13195,-9.47222 29.49306,-9.47222 16.36111,0 29.49306,9.47222 13.13194,9.47222 18.72917,24.97223 h 72.33334 q 14.20833,0 24.32639,10.11805 10.11805,10.11806 10.11805,24.32639 V -250 q 0,14.20833 -10.11805,24.32639 -10.11806,10.11806 -24.32639,10.11806 z m 0,-34.44445 H 600.55559 V -491.11114 H 359.44445 Z m 34.44445,-34.44445 H 514.44447 V -318.8889 H 393.8889 Z m 0,-68.88889 h 172.22224 v -34.44445 H 393.8889 Z m 0,-68.8889 h 172.22224 v -34.44445 H 393.8889 Z m 86.11112,-81.80556 q 5.59722,0 9.25694,-3.65973 3.65973,-3.65972 3.65973,-9.25694 0,-5.59722 -3.65973,-9.25695 -3.65972,-3.65972 -9.25694,-3.65972 -5.59722,0 -9.25695,3.65972 -3.65972,3.65973 -3.65972,9.25695 0,5.59722 3.65972,9.25694 3.65973,3.65973 9.25695,3.65973 z M 359.44445,-250 v -241.11114 z"
     id="path1-6"
     style="fill:#ffffff;stroke-width:0.430556" /><path
     d="m 240,-80 q -33,0 -56.5,-23.5 Q 160,-127 160,-160 v -640 q 0,-33 23.5,-56.5 Q 207,-880 240,-880 h 320 l 240,240 v 480 q 0,33 -23.5,56.5 Q 753,-80 720,-80 Z M 520,-600 V -800 H 240 v 640 H 720 V -600 Z M 240,-800 v 200 -200 640 z"
     id="path1" /></svg>
