<?xml version="1.0" encoding="UTF-8" standalone="no"?>
<svg
   height="24"
   viewBox="0 -960 960 960"
   width="24"
   fill="#ffffff"
   version="1.1"
   id="svg1"
   xml:space="preserve"
   xmlns="http://www.w3.org/2000/svg"
   xmlns:svg="http://www.w3.org/2000/svg"><defs
     id="defs1" /><path
     d="m 380,-280 v -40 H 499.99999 Q 493,-328.5 488.74999,-338.5 484.5,-348.5 482,-360 h -62.00001 v -40 H 482 q 2.5,-11.5 6.74999,-21.5 4.25001,-10 11.25,-18.5 h -200 v -40 H 580 q 41.5,0 70.75001,29.25 Q 680,-421.5 680,-380 q 0,41.5 -29.24999,70.75 Q 621.5,-280 580,-280 Z m 200,-40 q 25,0 42.5,-17.5 17.5,-17.49999 17.5,-42.5 0,-25.00001 -17.5,-42.5 Q 605,-440 580,-440 q -25.00001,0 -42.5,17.5 -17.49999,17.49999 -17.49999,42.5 0,25.00001 17.49999,42.5 17.49999,17.5 42.5,17.5 z m -300,-40 v -40 h 120 v 40 z m 19.99999,80 v -40 H 360 v 40 z"
     id="path1-4"
     style="fill:#ffffff;stroke-width:0.500001" /><path
     d="m 240,-80 q -33,0 -56.5,-23.5 Q 160,-127 160,-160 v -640 q 0,-33 23.5,-56.5 Q 207,-880 240,-880 h 320 l 240,240 v 480 q 0,33 -23.5,56.5 Q 753,-80 720,-80 Z M 520,-600 V -800 H 240 v 640 H 720 V -600 Z M 240,-800 v 200 -200 640 z"
     id="path1"
     style="display:inline" /></svg>
