<?xml version="1.0" encoding="UTF-8" standalone="no"?>
<svg
   height="24"
   viewBox="0 -960 960 960"
   width="24"
   fill="#ffffff"
   version="1.1"
   id="svg1"
   xml:space="preserve"
   xmlns="http://www.w3.org/2000/svg"
   xmlns:svg="http://www.w3.org/2000/svg"><defs
     id="defs1" /><path
     d="m 461.11111,-240.34459 v -129.3889 l -113.33334,-65.63889 v 129.38889 z m 37.77777,0 113.33334,-65.6389 v -129.38889 l -113.33334,65.63889 z M 480,-402.31682 591.91666,-467.01126 480,-531.70571 368.08333,-467.01126 Z m -151.11111,129.38888 q -8.97223,-5.19444 -13.93056,-13.69443 Q 310,-295.12238 310,-305.51127 v -150.16667 q 0,-10.38888 4.95833,-18.88888 4.95833,-8.50001 13.93056,-13.69444 l 132.22222,-76.02779 q 8.97223,-5.19443 18.88889,-5.19443 9.91665,0 18.88888,5.19443 l 132.22223,76.02779 q 8.97222,5.19443 13.93055,13.69444 4.95834,8.5 4.95834,18.88888 v 150.16667 q 0,10.38889 -4.95834,18.8889 -4.95833,8.49999 -13.93055,13.69443 l -132.22223,76.02778 q -8.97223,5.19445 -18.88888,5.19445 -9.91666,0 -18.88889,-5.19445 z M 480,-380.5946 Z"
     id="path1-0"
     style="fill:#ffffff;stroke-width:0.472223" /><path
     d="m 240,-80 q -33,0 -56.5,-23.5 Q 160,-127 160,-160 v -640 q 0,-33 23.5,-56.5 Q 207,-880 240,-880 h 320 l 240,240 v 480 q 0,33 -23.5,56.5 Q 753,-80 720,-80 Z M 520,-600 V -800 H 240 v 640 H 720 V -600 Z M 240,-800 v 200 -200 640 z"
     id="path1" /></svg>
