<?xml version="1.0" encoding="UTF-8" standalone="no"?>
<svg
   height="24"
   viewBox="0 -960 960 960"
   width="24"
   fill="#ffffff"
   version="1.1"
   id="svg1"
   xml:space="preserve"
   xmlns="http://www.w3.org/2000/svg"
   xmlns:svg="http://www.w3.org/2000/svg"><defs
     id="defs1" /><path
     d="m 240,-80 q -33,0 -56.5,-23.5 Q 160,-127 160,-160 v -640 q 0,-33 23.5,-56.5 Q 207,-880 240,-880 h 320 l 240,240 v 480 q 0,33 -23.5,56.5 Q 753,-80 720,-80 Z M 520,-600 V -800 H 240 v 640 H 720 V -600 Z M 240,-800 v 200 -200 640 z"
     id="path1"
     style="display:inline" /><path
     d="m 481.25,-203.74999 q -15.46874,0 -26.48438,-11.01563 Q 443.75,-225.78125 443.75,-241.25 v -74.99999 H 387.5 q -15.46875,0 -26.48438,-11.01564 Q 350,-338.28125 350,-353.75 V -485 q 0,-30.9375 22.03125,-52.96875 Q 394.06249,-560 425,-560 h 225 v 206.25 q 0,15.46875 -11.01562,26.48437 -11.01562,11.01564 -26.48438,11.01564 H 556.25 V -241.25 q 0,15.46875 -11.01562,26.48438 -11.01562,11.01563 -26.48437,11.01563 z M 387.5,-428.75 h 225 v -93.75 h -18.75001 v 75.00001 H 556.25 V -522.5 H 537.50001 V -485 H 500 v -37.5 h -75 q -15.46875,0 -26.48437,11.01563 Q 387.5,-500.46875 387.5,-485 Z m 0,75 h 225 v -37.5 h -225 z m 0,0 v -37.5 z"
     id="path1-9"
     style="fill:#ffffff;stroke-width:0.46875" /></svg>
