<?xml version="1.0" encoding="UTF-8" standalone="no"?>
<svg
   height="24"
   viewBox="0 -960 960 960"
   width="24"
   fill="#ffffff"
   version="1.1"
   id="svg1"
   xml:space="preserve"
   xmlns="http://www.w3.org/2000/svg"
   xmlns:svg="http://www.w3.org/2000/svg"><defs
     id="defs1" /><path
     style="font-size:487.815px;font-family:Eigerdals;-inkscape-font-specification:Eigerdals;opacity:1;fill:#ffffff;stroke-width:40.6514"
     d="m 455.89902,-308.57672 q -25.85419,0 -35.61049,-7.31722 -9.26849,-6.3416 -9.26849,-21.95168 0.97563,-51.70839 51.22058,-76.58695 4.39033,-2.43908 18.53697,-8.78067 10.73193,-4.39034 16.09789,-7.80504 15.12227,-8.78067 15.12227,-21.46386 0,-24.39075 -52.19621,-24.39075 -34.63486,0 -74.63569,12.19537 -24.87857,7.80504 -32.68361,-23.90293 l -2.43907,-9.7563 q -8.29286,-34.63487 17.07352,-43.41554 46.34243,-16.58571 99.02645,-16.58571 145.85668,0 145.85668,100.97771 0,54.14746 -54.14746,78.53821 l -37.07394,16.58571 q -17.07353,9.7563 -17.07353,24.87857 0,28.78108 -47.80587,28.78108 z m -54.14746,62.92814 q 0,-34.14705 14.14663,-45.3668 10.73193,-8.78067 39.51302,-8.78067 33.17142,0 41.46427,5.85378 7.80504,6.3416 7.80504,29.75672 v 12.68319 q 0,34.14705 -13.65882,45.36679 -10.73193,8.78067 -40.00083,8.78067 -32.6836,0 -40.97646,-6.34159 -8.29285,-5.85378 -8.29285,-29.2689 z"
     id="text2"
     aria-label="?" /><path
     d="m 240,-80 q -33,0 -56.5,-23.5 Q 160,-127 160,-160 v -640 q 0,-33 23.5,-56.5 Q 207,-880 240,-880 h 320 l 240,240 v 480 q 0,33 -23.5,56.5 Q 753,-80 720,-80 Z M 520,-600 V -800 H 240 v 640 H 720 V -600 Z M 240,-800 v 200 -200 640 z"
     id="path1"
     style="display:inline" /></svg>
