<?xml version="1.0" encoding="UTF-8" standalone="no"?>
<svg
   height="30"
   viewBox="0 -960 1200 1200"
   width="30"
   fill="#ffffff"
   version="1.1"
   id="svg1"
   xmlns="http://www.w3.org/2000/svg"
   xmlns:svg="http://www.w3.org/2000/svg">
  <defs
     id="defs1" />
  <path
     d="m 764,-308 -58,-58 q 9,-47 -27,-88 -36,-41 -93,-32 l -58,-58 q 17,-8 34.5,-12 17.5,-4 37.5,-4 75,0 127.5,52.5 52.5,52.5 52.5,127.5 0,20 -4,37.5 -4,17.5 -12,34.5 z m 128,126 -58,-56 q 38,-29 67.5,-63.5 Q 931,-336 952,-380 902,-481 808.5,-540.5 715,-600 600,-600 q -29,0 -57,4 -28,4 -55,12 l -62,-62 q 41,-17 84,-25.5 43,-8.5 90,-8.5 151,0 269,83.5 118,83.5 171,216.5 -23,59 -60.5,109.5 Q 942,-220 892,-182 Z M 912,64 744,-102 Q 709,-91 673.5,-85.5 638,-80 600,-80 449,-80 331,-163.5 213,-247 160,-380 q 21,-53 53,-98.5 32,-45.5 73,-81.5 L 176,-672 232,-728 968,8 Z M 342,-504 q -29,26 -53,57 -24,31 -41,67 50,101 143.5,160.5 93.5,59.5 208.5,59.5 20,0 39,-2.5 19,-2.5 39,-5.5 l -36,-38 q -11,3 -21,4.5 -10,1.5 -21,1.5 -75,0 -127.5,-52.5 Q 420,-305 420,-380 q 0,-11 1.5,-21 1.5,-10 4.5,-21 z m 319,93 z m -151,75 z"
     id="path1" />
</svg>
