<?xml version="1.0" encoding="UTF-8" standalone="no"?>
<svg
   height="30"
   viewBox="0 -960 1200 1200"
   width="30"
   fill="#ffffff"
   version="1.1"
   id="svg1"
   xmlns="http://www.w3.org/2000/svg"
   xmlns:svg="http://www.w3.org/2000/svg">
  <defs
     id="defs1" />
  <path
     d="m 600,-200 q 75,0 127.5,-52.5 Q 780,-305 780,-380 780,-455 727.5,-507.5 675,-560 600,-560 525,-560 472.5,-507.5 420,-455 420,-380 q 0,75 52.5,127.5 Q 525,-200 600,-200 Z m 0,-72 q -45,0 -76.5,-31.5 Q 492,-335 492,-380 q 0,-45 31.5,-76.5 31.5,-31.5 76.5,-31.5 45,0 76.5,31.5 31.5,31.5 31.5,76.5 0,45 -31.5,76.5 Q 645,-272 600,-272 Z m 0,192 Q 454,-80 334,-161.5 214,-243 160,-380 214,-517 334,-598.5 454,-680 600,-680 q 146,0 266,81.5 120,81.5 174,218.5 -54,137 -174,218.5 Q 746,-80 600,-80 Z m 0,-300 z m 0,220 q 113,0 207.5,-59.5 Q 902,-279 952,-380 902,-481 807.5,-540.5 713,-600 600,-600 487,-600 392.5,-540.5 298,-481 248,-380 298,-279 392.5,-219.5 487,-160 600,-160 Z"
     id="path1" />
</svg>
