<?xml version="1.0" encoding="UTF-8" standalone="no"?>
<svg
   height="24"
   viewBox="0 -960 960 960"
   width="24"
   fill="#ffffff"
   version="1.1"
   id="svg1"
   xmlns="http://www.w3.org/2000/svg"
   xmlns:svg="http://www.w3.org/2000/svg">
  <defs
     id="defs1" />
  <g
     id="g1"
     style="stroke:#b6b600;stroke-width:49;stroke-linecap:round;stroke-linejoin:round;stroke-dasharray:none;stroke-opacity:1">
    <path
       d="m 477.79492,-930.3418 a 48.136223,48.136223 0 0 0 -48.13672,48.13672 v 84.41016 a 48.136223,48.136223 0 0 0 48.13672,48.13672 h 4.41016 a 48.136223,48.136223 0 0 0 48.13672,-48.13672 v -84.41016 a 48.136223,48.136223 0 0 0 -48.13672,-48.13672 z m -265.80469,130.68946 a 48.136223,48.136223 0 0 0 -34.69531,14.6914 l -3.39453,3.51367 a 48.136223,48.136223 0 0 0 1.27539,68.16211 l 45.9375,44.11914 a 48.136223,48.136223 0 0 0 68.625,-1.9707 l 1.56445,-1.68555 a 48.136223,48.136223 0 0 0 -0.55468,-66.08203 l -44.10743,-45.94726 a 48.136223,48.136223 0 0 0 -34.65039,-14.80078 z m 535.11133,0.0449 a 48.136223,48.136223 0 0 0 -33.8164,14.7832 l -44.11914,45.9375 a 48.136223,48.136223 0 0 0 1.9707,68.625 l 1.68555,1.56445 a 48.136223,48.136223 0 0 0 66.08203,-0.55468 l 45.94726,-44.10742 a 48.136223,48.136223 0 0 0 0.10938,-69.34571 l -3.51367,-3.39453 a 48.136223,48.136223 0 0 0 -34.34571,-13.50781 z M 480,-690.3418 c -57.56113,0 -108.2267,20.9435 -148.8125,61.5293 -40.5858,40.5858 -61.5293,91.25137 -61.5293,148.8125 0,57.56113 20.9435,108.2267 61.5293,148.8125 40.5858,40.5858 91.25137,61.5293 148.8125,61.5293 57.56113,0 108.2267,-20.9435 148.8125,-61.5293 40.5858,-40.5858 61.5293,-91.25137 61.5293,-148.8125 0,-57.56113 -20.9435,-108.2267 -61.5293,-148.8125 C 588.2267,-669.3983 537.56113,-690.3418 480,-690.3418 Z m 0,100.6836 c 30.98788,0 56.05432,10.33752 77.6875,31.9707 21.63318,21.63318 31.9707,46.69962 31.9707,77.6875 0,30.98788 -10.33752,56.05432 -31.9707,77.6875 -21.63318,21.63318 -46.69962,31.9707 -77.6875,31.9707 -30.98788,0 -56.05432,-10.33752 -77.6875,-31.9707 -21.63318,-21.63318 -31.9707,-46.69962 -31.9707,-77.6875 0,-30.98788 10.33752,-56.05432 31.9707,-77.6875 21.63318,-21.63318 46.69962,-31.9707 77.6875,-31.9707 z m -402.205078,59.3164 a 48.136223,48.136223 0 0 0 -48.136719,48.13672 v 4.41016 a 48.136223,48.136223 0 0 0 48.136719,48.13672 h 84.410158 a 48.136223,48.136223 0 0 0 48.13672,-48.13672 v -4.41016 a 48.136223,48.136223 0 0 0 -48.13672,-48.13672 z m 719.999998,0 a 48.136223,48.136223 0 0 0 -48.13672,48.13672 v 4.41016 a 48.136223,48.136223 0 0 0 48.13672,48.13672 h 84.41016 a 48.136223,48.136223 0 0 0 48.13672,-48.13672 v -4.41016 a 48.136223,48.136223 0 0 0 -48.13672,-48.13672 z m -93.69922,225.61133 a 48.136223,48.136223 0 0 0 -33.73047,14.73242 l -1.58789,1.64844 a 48.136223,48.136223 0 0 0 -0.0488,66.73828 l 44.63671,46.47656 a 48.136223,48.136223 0 0 0 69.34571,0.0937 l 3.39843,-3.51953 a 48.136223,48.136223 0 0 0 -1.2871,-68.15625 L 738.375,-291.32227 a 48.136223,48.136223 0 0 0 -34.2793,-13.4082 z m -449.10547,0.0391 a 48.136223,48.136223 0 0 0 -33.3789,13.41993 l -46.47656,44.63671 a 48.136223,48.136223 0 0 0 -0.0937,69.34571 l 3.51953,3.39844 a 48.136223,48.136223 0 0 0 68.15625,-1.28711 l 44.60547,-46.44727 a 48.136223,48.136223 0 0 0 -1.32422,-68.00977 l -1.64844,-1.58789 a 48.136223,48.136223 0 0 0 -33.35938,-13.46875 z m 222.80469,94.34961 a 48.136223,48.136223 0 0 0 -48.13672,48.13672 v 84.410158 a 48.136223,48.136223 0 0 0 48.13672,48.136719 h 4.41016 a 48.136223,48.136223 0 0 0 48.13672,-48.136719 v -84.410158 a 48.136223,48.136223 0 0 0 -48.13672,-48.13672 z"
       id="path1"
       style="fill:#ffff00;stroke:#b6b600;stroke-width:49;stroke-linecap:round;stroke-linejoin:round;stroke-dasharray:none;stroke-opacity:1" />
  </g>
</svg>
